<svg xmlns="http://www.w3.org/2000/svg" xmlns:xlink="http://www.w3.org/1999/xlink" id="svg" version="1.1" width="300" height="300" viewBox="-2.2000 -2.2000 4.4000 4.4000">
<defs>
  <g id="agent" r="1">
  	<circle class="body" cx="0" cy="0" r="1"/>
  	<circle opacity="0.5" fill="black" cx="0.75" cy="0" r="0.25"/>
  </g>
  <g id="thymio" transform="rotate(90) scale(0.125)">
      <path class="body" stroke="none" d="M -5.4999227 -5.8058472 L -5.4999227 2.9998169 L 5.4999227 2.9998169 L 5.4999227     -5.8089478 A 8 8 0 0 0 0 -8.0000285 A 8 8 0 0 0 -5.4999227 -5.8058472 z "/>
      <rect style="fill:#333333;stroke:none" width="1.5" height="4.1999998" x="-5.4000001" y="-2.0999999" rx="0.5"/>
      <rect style="fill:#333333;stroke:none" id="rect441" width="1.5" height="4.1999998" x="3.9000001" y="-2.0999999" rx="0.5"/>
  </g>
  <g id="wheelchair" transform="scale(0.02) rotate(180) translate(-55,-173)">
    <path stroke="none" style="fill:#c8beb7" d="m 48.06149,189.83177 h -38.89 v -33.33 h 38.89 z"/>
    <path stroke="none" style="fill:#080808;" d="m 81.382974,148.5266 v -4.11718 -4.21485 H 53.61149 v 8.33203 z"/>
    <path stroke="none" style="fill:#080808;" d="m 81.382974,204.0666 v -4.11718 -4.21485 H 53.61149 v 8.33203 z"/>
    <path stroke="none" class="body" d="m 92.497232,199.91402 h -50 v -55.55999 h 50 z"/>
    <path stroke="none" style="fill:#917c6f" d="m 92.497232,199.91332 v -2.77148 -52.78711 h -5.558593 v 55.55859 z"/>
  </g>
  <g id="human" transform="scale(0.02) rotate(180) translate(-50,-175)">
    <g class="body" stroke="none">
    <ellipse cx="54.378712" cy="172.97321" rx="19.763088" ry="43.396534"/>

    <ellipse cx="40.156387" cy="134.79787" rx="23.189381" ry="6.961535"/>
    <ellipse cx="40.156387" cy="211.14854" rx="23.189381" ry="6.961535"/>
    </g>
    <ellipse style="fill:#1a1a1a;opacity:0.5" cx="54.378712" cy="172.90125" rx="16.28758" ry="16.635132"/>
  </g>
</defs>
<style>
<![CDATA[

/*svg{
  style=stroke-width: 0px;
}
*/
circle.obstacle{
  fill: gray; 
  stroke:none;
}
polyline.wall{
  stroke:black;
  stroke-width:0.01;
}

.shape {
  fill: none;
  stroke: black;
  stroke-width: 0.01;
  stroke-dasharray: 0.01;
}

.thymio {
  fill: #e6e6e6;
}

.human {
  fill: #666666;
}

.agent {
  fill: gray;
}

.wheelchair {
  fill: #483e37;
}

/*.body {
    all: inherit;
}
*/





svg {
   background-color: snow;
}

.grid {
  stroke: ;
  stroke-width: ;
}
]]>
</style>

<g id="world" transform="scale(1, -1) ">



<g id="2" class="thymio" style="fill:#e6e6e6" transform="translate(-1.443, -1.795) rotate(69.183)"><use xlink:href="#thymio" transform="scale(0.08, 0.08)"/></g><g id="12" class="agent" style="fill:gold" transform="translate(-1.274, -1.529) rotate(25.028)"><use xlink:href="#agent" transform="scale(0.114, 0.114)"/></g><g id="7" class="thymio" style="fill:#e6e6e6" transform="translate(0.417, -1.432) rotate(-126.27)"><use xlink:href="#thymio" transform="scale(0.08, 0.08)"/></g><g id="14" class="agent" style="fill:gold" transform="translate(0.608, -1.214) rotate(100.71)"><use xlink:href="#agent" transform="scale(0.088, 0.088)"/></g><g id="3" class="thymio" style="fill:#e6e6e6" transform="translate(-0.764, -0.982) rotate(-53.136)"><use xlink:href="#thymio" transform="scale(0.08, 0.08)"/></g><g id="19" class="agent" style="fill:gold" transform="translate(-0.913, -0.355) rotate(-60.974)"><use xlink:href="#agent" transform="scale(0.181, 0.181)"/></g><g id="17" class="agent" style="fill:gold" transform="translate(-0.227, -0.124) rotate(175.994)"><use xlink:href="#agent" transform="scale(0.136, 0.136)"/></g><g id="15" class="agent" style="fill:gold" transform="translate(-0.675, 0.134) rotate(-72.446)"><use xlink:href="#agent" transform="scale(0.161, 0.161)"/></g><g id="16" class="agent" style="fill:gold" transform="translate(0.021, 0.396) rotate(-11.304)"><use xlink:href="#agent" transform="scale(0.14, 0.14)"/></g><g id="13" class="agent" style="fill:gold" transform="translate(-0.379, 0.436) rotate(-164.958)"><use xlink:href="#agent" transform="scale(0.061, 0.061)"/></g><g id="9" class="thymio" style="fill:#e6e6e6" transform="translate(0.853, 0.463) rotate(-170.785)"><use xlink:href="#thymio" transform="scale(0.08, 0.08)"/></g><g id="8" class="thymio" style="fill:#e6e6e6" transform="translate(0.051, 0.737) rotate(-20.702)"><use xlink:href="#thymio" transform="scale(0.08, 0.08)"/></g><g id="11" class="agent" style="fill:gold" transform="translate(0.83, 0.832) rotate(-106.334)"><use xlink:href="#agent" transform="scale(0.169, 0.169)"/></g><g id="1" class="thymio" style="fill:#e6e6e6" transform="translate(-0.741, 0.864) rotate(-145.557)"><use xlink:href="#thymio" transform="scale(0.08, 0.08)"/></g><g id="10" class="agent" style="fill:gold" transform="translate(0.448, 1.058) rotate(115.407)"><use xlink:href="#agent" transform="scale(0.073, 0.073)"/></g><g id="4" class="thymio" style="fill:#e6e6e6" transform="translate(1.814, 1.237) rotate(-81.467)"><use xlink:href="#thymio" transform="scale(0.08, 0.08)"/></g><g id="0" class="thymio" style="fill:#e6e6e6" transform="translate(-1.26, 1.277) rotate(-21.39)"><use xlink:href="#thymio" transform="scale(0.08, 0.08)"/></g><g id="6" class="thymio" style="fill:#e6e6e6" transform="translate(-0.538, 1.493) rotate(43.302)"><use xlink:href="#thymio" transform="scale(0.08, 0.08)"/></g><g id="18" class="agent" style="fill:gold" transform="translate(-1.062, 1.515) rotate(24.576)"><use xlink:href="#agent" transform="scale(0.09, 0.09)"/></g><g id="5" class="thymio" style="fill:#e6e6e6" transform="translate(-1.776, 1.719) rotate(-97.418)"><use xlink:href="#thymio" transform="scale(0.08, 0.08)"/></g>
</g>
</svg>