<svg xmlns="http://www.w3.org/2000/svg" xmlns:xlink="http://www.w3.org/1999/xlink" id="svg" version="1.1" width="300" height="300" viewBox="-2.2000 -2.2000 4.4000 4.4000">
<defs>
  <g id="agent" r="1">
  	<circle class="body" cx="0" cy="0" r="1"/>
  	<circle opacity="0.5" fill="black" cx="0.75" cy="0" r="0.25"/>
  </g>
  <g id="thymio" transform="rotate(90) scale(0.125)">
      <path class="body" stroke="none" d="M -5.4999227 -5.8058472 L -5.4999227 2.9998169 L 5.4999227 2.9998169 L 5.4999227     -5.8089478 A 8 8 0 0 0 0 -8.0000285 A 8 8 0 0 0 -5.4999227 -5.8058472 z "/>
      <rect style="fill:#333333;stroke:none" width="1.5" height="4.1999998" x="-5.4000001" y="-2.0999999" rx="0.5"/>
      <rect style="fill:#333333;stroke:none" id="rect441" width="1.5" height="4.1999998" x="3.9000001" y="-2.0999999" rx="0.5"/>
  </g>
  <g id="wheelchair" transform="scale(0.02) rotate(180) translate(-55,-173)">
    <path stroke="none" style="fill:#c8beb7" d="m 48.06149,189.83177 h -38.89 v -33.33 h 38.89 z"/>
    <path stroke="none" style="fill:#080808;" d="m 81.382974,148.5266 v -4.11718 -4.21485 H 53.61149 v 8.33203 z"/>
    <path stroke="none" style="fill:#080808;" d="m 81.382974,204.0666 v -4.11718 -4.21485 H 53.61149 v 8.33203 z"/>
    <path stroke="none" class="body" d="m 92.497232,199.91402 h -50 v -55.55999 h 50 z"/>
    <path stroke="none" style="fill:#917c6f" d="m 92.497232,199.91332 v -2.77148 -52.78711 h -5.558593 v 55.55859 z"/>
  </g>
  <g id="human" transform="scale(0.02) rotate(180) translate(-50,-175)">
    <g class="body" stroke="none">
    <ellipse cx="54.378712" cy="172.97321" rx="19.763088" ry="43.396534"/>

    <ellipse cx="40.156387" cy="134.79787" rx="23.189381" ry="6.961535"/>
    <ellipse cx="40.156387" cy="211.14854" rx="23.189381" ry="6.961535"/>
    </g>
    <ellipse style="fill:#1a1a1a;opacity:0.5" cx="54.378712" cy="172.90125" rx="16.28758" ry="16.635132"/>
  </g>
</defs>
<style>
<![CDATA[

/*svg{
  style=stroke-width: 0px;
}
*/
circle.obstacle{
  fill: gray; 
  stroke:none;
}
polyline.wall{
  stroke:black;
  stroke-width:0.01;
}

.shape {
  fill: none;
  stroke: black;
  stroke-width: 0.01;
  stroke-dasharray: 0.01;
}

.thymio {
  fill: #e6e6e6;
}

.human {
  fill: #666666;
}

.agent {
  fill: gray;
}

.wheelchair {
  fill: #483e37;
}

/*.body {
    all: inherit;
}
*/





svg {
   background-color: snow;
}

.grid {
  stroke: ;
  stroke-width: ;
}
]]>
</style>

<g id="world" transform="scale(1, -1) ">



<g id="3" class="thymio" style="fill:#fdd884" transform="translate(-0.323, -1.439) rotate(66.178)"><use xlink:href="#thymio" transform="scale(0.08, 0.08)"/></g><g id="12" class="agent" style="fill:#bfe37a" transform="translate(-0.29, -1.202) rotate(-36.813)"><use xlink:href="#agent" transform="scale(0.114, 0.114)"/></g><g id="15" class="agent" style="fill:#219b51" transform="translate(-0.737, -1.118) rotate(-85.434)"><use xlink:href="#agent" transform="scale(0.161, 0.161)"/></g><g id="7" class="thymio" style="fill:#fef7b1" transform="translate(0.254, -1.003) rotate(-293.66)"><use xlink:href="#thymio" transform="scale(0.08, 0.08)"/></g><g id="19" class="agent" style="fill:#1b9850" transform="translate(-0.056, -0.884) rotate(-97.815)"><use xlink:href="#agent" transform="scale(0.181, 0.181)"/></g><g id="2" class="thymio" style="fill:#fefdbb" transform="translate(-1.099, -0.696) rotate(64.416)"><use xlink:href="#thymio" transform="scale(0.08, 0.08)"/></g><g id="16" class="agent" style="fill:#118847" transform="translate(1.17, -0.352) rotate(10.938)"><use xlink:href="#agent" transform="scale(0.14, 0.14)"/></g><g id="11" class="agent" style="fill:#8bcd67" transform="translate(0.703, -0.086) rotate(-92.474)"><use xlink:href="#agent" transform="scale(0.169, 0.169)"/></g><g id="17" class="agent" style="fill:#108646" transform="translate(-1.133, -0.014) rotate(220.036)"><use xlink:href="#agent" transform="scale(0.136, 0.136)"/></g><g id="13" class="agent" style="fill:#fefdbb" transform="translate(-1.532, 0.034) rotate(-84.613)"><use xlink:href="#agent" transform="scale(0.061, 0.061)"/></g><g id="14" class="agent" style="fill:#77c464" transform="translate(0.11, 0.151) rotate(101.253)"><use xlink:href="#agent" transform="scale(0.088, 0.088)"/></g><g id="1" class="thymio" style="fill:#fdc675" transform="translate(-1.607, 0.275) rotate(-24.087)"><use xlink:href="#thymio" transform="scale(0.08, 0.08)"/></g><g id="9" class="thymio" style="fill:#8bcd67" transform="translate(-0.285, 0.301) rotate(-169.252)"><use xlink:href="#thymio" transform="scale(0.08, 0.08)"/></g><g id="8" class="thymio" style="fill:#17934d" transform="translate(1.148, 0.361) rotate(-22.953)"><use xlink:href="#thymio" transform="scale(0.08, 0.08)"/></g><g id="4" class="thymio" style="fill:#fdbe6f" transform="translate(1.648, 0.467) rotate(-180.741)"><use xlink:href="#thymio" transform="scale(0.08, 0.08)"/></g><g id="5" class="thymio" style="fill:#036d39" transform="translate(-1.926, 0.556) rotate(-99.544)"><use xlink:href="#thymio" transform="scale(0.08, 0.08)"/></g><g id="0" class="thymio" style="fill:#d3ec87" transform="translate(-0.123, 1.013) rotate(-14.013)"><use xlink:href="#thymio" transform="scale(0.08, 0.08)"/></g><g id="6" class="thymio" style="fill:#fef5af" transform="translate(0.117, 1.023) rotate(-62.413)"><use xlink:href="#thymio" transform="scale(0.08, 0.08)"/></g><g id="10" class="agent" style="fill:#eff8a9" transform="translate(0.496, 1.204) rotate(-70.292)"><use xlink:href="#agent" transform="scale(0.073, 0.073)"/></g><g id="18" class="agent" style="fill:#fcfebb" transform="translate(-0.438, 1.413) rotate(-105.632)"><use xlink:href="#agent" transform="scale(0.09, 0.09)"/></g>
</g>
</svg>