<?xml version="1.0" encoding="UTF-8" standalone="no"?>
<!-- Created with Inkscape (http://www.inkscape.org/) -->
<svg id="{{prefix}}svg" xmlns="http://www.w3.org/2000/svg" xmlns:xlink="http://www.w3.org/1999/xlink" version="1.1" width="100" height="100" viewBox="-1 -1 2 2">
  <g id="quadrotor">
    <path class="camera" style="stroke:none;fill:#808080" d="M 0.25,0 0.75,0.25 0.75,-0.25 Z"/>
    <g class="body">
      <path d="M 0.06999986,0.07032032 0.49632602,-0.4605096 0.45935482,-0.492153 -0.07000004,-0.06968042 Z"/>
      <path d="m -0.07000006,0.07032032 -0.42632616,-0.53082992 0.0369712,-0.0316434 0.52935486,0.42247258 z"/>
      <path d="M 0.06999986,-0.07096132 0.49632602,0.4598686 0.45935482,0.4915121 -0.07000004,0.06903952 Z" />
      <path d="M -0.07000006,-0.07096132 -0.49632622,0.4598686 -0.45935502,0.491512 0.06999984,0.06903942 Z"/>
      <circle cx="0" cy="0" r="0.35" />
    </g>
    <g class="prop">
      <ellipse
         style="fill:#0d0d0d;stroke:none;"
         cx="0.69928879"
         cy="-0.14274563"
         rx="0.024324713"
         ry="0.11011158"
         transform="rotate(-45)" />
      <ellipse
         style="fill:#0d0d0d;stroke:none;"
         cx="0.69928879"
         cy="0.14367317"
         rx="0.024324713"
         ry="0.11011158"
         transform="rotate(-45)" />
      <ellipse
         style="fill:none;stroke:#000000;stroke-width:0.0392596"
         cx="0.49399981"
         cy="-0.49447966"
         rx="0.28037018"
         ry="0.28037015"  />
      <ellipse
         style="fill:none;stroke:#000000;stroke-width:0.0574358"
         cx="0.49399981"
         cy="-0.49447966"
         rx="0.051282048"
         ry="0.051282078" />
    </g>
    <g class="prop">
      <ellipse
         style="fill:#0d0d0d;stroke:none;"
         cx="0.69928879"
         cy="-0.14274563"
         rx="0.024324713"
         ry="0.11011158"
         transform="matrix(-0.70710678,-0.70710678,-0.70710678,0.70710678,0,0)" />
      <ellipse
         style="fill:#0d0d0d;stroke:none;"
         cx="0.69928879"
         cy="0.14367317"
         rx="0.024324713"
         ry="0.11011158"
         transform="matrix(-0.70710678,-0.70710678,-0.70710678,0.70710678,0,0)" />
      <ellipse
         style="fill:none;stroke:#000000;stroke-width:0.0392596"
         cx="0.49399981"
         cy="-0.49447966"
         rx="0.28037018"
         ry="0.28037015" 
         transform="scale(-1,1)" />
      <ellipse
         style="fill:none;stroke:#000000;stroke-width:0.0574358"
         cx="0.49399981"
         cy="-0.49447966"
         rx="0.051282048"
         ry="0.051282078"
         transform="scale(-1,1)" />
    </g>
    <g class="prop">
      <ellipse
         style="fill:#0d0d0d;stroke:none;"
         cx="0.69928879"
         cy="-0.14274563"
         rx="0.024324713"
         ry="0.11011158"
         transform="matrix(0.70710678,0.70710678,0.70710678,-0.70710678,0,0)" />
      <ellipse
         style="fill:#0d0d0d;stroke:none;"
         cx="0.69928879"
         cy="0.14367317"
         rx="0.024324713"
         ry="0.11011158"
         transform="matrix(0.70710678,0.70710678,0.70710678,-0.70710678,0,0)" />
      <ellipse
         style="fill:none;stroke:#000000;stroke-width:0.0392596"
         cx="0.49399981"
         cy="-0.49447966"
         rx="0.28037018"
         ry="0.28037015" 
         transform="scale(1,-1)" />
      <ellipse
         style="fill:none;stroke:#000000;stroke-width:0.0574358"
         cx="0.49399981"
         cy="-0.49447966"
         rx="0.051282048"
         ry="0.051282078"
         transform="scale(1,-1)" />
    </g>
    <g class="prop">
      <ellipse
         style="fill:#0d0d0d;stroke:none;"
         cx="0.69928879"
         cy="-0.14274563"
         rx="0.024324713"
         ry="0.11011158"
         transform="rotate(135)" />
      <ellipse
         style="fill:#0d0d0d;stroke:none;"
         cx="0.69928879"
         cy="0.14367317"
         rx="0.024324713"
         ry="0.11011158"
         transform="rotate(135)" />
      <ellipse
         style="fill:none;stroke:#000000;stroke-width:0.0392596"
         cx="0.49399981"
         cy="-0.49447966"
         rx="0.28037018"
         ry="0.28037015" 
         transform="scale(-1)" />
      <ellipse
         style="fill:none;stroke:#000000;stroke-width:0.0574358"
         cx="0.49399981"
         cy="-0.49447966"
         rx="0.051282048"
         ry="0.051282078"
         transform="scale(-1)" />
    </g>
  </g>
</svg>
