<?xml version="1.0" encoding="UTF-8" standalone="no"?>
<svg version="1.1" viewBox="-1 -1 2.5 2" width="6cm" height="6cm" xml:space="preserve" xmlns="http://www.w3.org/2000/svg" xmlns:svg="http://www.w3.org/2000/svg">
  <g class="robomaster_ep">
    <path class="body" d="m -0.82233223,0.24 c -0.0391148,-0.15514519 -0.0391148,-0.32485481 0,-0.48 0.0120317,-0.0477227 0.07,-0.13 0.07,-0.13 h 0.45 l 0.09,-0.11 h 0.42 l 0.09,0.11 h 0.45 c 0,0 0.16467536,0.14929718 0.2,0.25 0.0264806,0.07549027 0.0264806,0.16450973 0,0.24 -0.0353246,0.10070282 -0.2,0.25 -0.2,0.25 h -0.45 l -0.09,0.11 h -0.42 l -0.09,-0.11 h -0.45 c 0,0 -0.0579683,-0.0822773 -0.07,-0.13 z"/>
    <rect class="wheel" height="0.22774614" rx="0.073571824" ry="0.073361315" style="fill:#121212;fill-opacity:1;stroke:none;stroke-width:0.00979554;stroke-dasharray:none;stroke-opacity:1" transform="scale(-1,1)" width="0.53466278" x="0.2324958" y="-0.61387306"/>
    <rect class="wheel" height="0.22774614" rx="0.073571824" ry="0.073361315" style="fill:#121212;stroke:none" width="0.53466278" x="0.23283984" y="-0.61387306"/>
    <rect class="wheel" height="0.22774614" rx="0.073571824" ry="0.073361315" style="fill:#121212;stroke:none" width="0.53466278" x="0.23283984" y="0.38612694"/>
    <rect class="wheel" height="0.22774614" rx="0.073571824" ry="0.073361315" style="fill:#121212;stroke:none" width="0.53466278" x="-0.76715857" y="0.38612694"/>
    <rect class="motor" height="0.12521972" style="fill:#2a2a2a;stroke:none" width="0.22443947" x="-0.093881205" y="0.15738994"/>
    <rect class="motor" height="0.12521972" style="fill:#2a2a2a;stroke:none" width="0.22443947" x="-0.093881205" y="-0.28260982"/>
    <path class="arm" d="m 1.0576703,-0.39000203 -0.23000152,0.0700009 -0.0300033,0.1699999 H -0.14233403 V 0.1500012 H 0.79766546 L 0.82766878,0.3200011 1.0576703,0.390002 1.2276702,0.3200011 1.2576684,0.2599996 H 1.0518308 L 0.93766725,0.1199978 V -0.1199978 L 1.0624503,-0.2599996 h 0.1952181 l -0.029998,-0.0600015 z m -0.00814,0.0597017 -0.13185764,0.1502648 -0.052064,-0.0813749 z m -0.75185597,0.2503 H 0.54478682 V 0.0800003 H 0.29767013 Z M 0.91766846,0.1841076 1.0495261,0.3343724 0.86560445,0.2654825 Z" style="fill:#2a2a2a;stroke:none"/>
  </g>
</svg>