{% if standalone %}
<?xml version="1.0" standalone="no"?>
{% if external_style_path %}
<?xml-stylesheet href="{{external_style_path}}" type="text/css"?>
{% endif %}
<!DOCTYPE svg PUBLIC "-//W3C//DTD SVG 1.1//EN" "http://www.w3.org/Graphics/SVG/1.1/DTD/svg11.dtd">
{% endif %}
<svg id="{{prefix}}svg" xmlns="http://www.w3.org/2000/svg" xmlns:xlink="http://www.w3.org/1999/xlink" version="1.1" width="{{width}}" height="{{height}}" viewBox="{{viewBox}}">
<defs>
  <g id="{{prefix}}agent" r="1">
  	<circle class="body" cx="0" cy="0" r="1"/>
  	<circle opacity="0.5" fill="black" cx="0.75" cy="0" r="0.25"/>
  </g>
  <g id="{{prefix}}thymio" transform="rotate(90) scale(0.125)">
      <path class="body"
         stroke="none"
         d="M -5.4999227 -5.8058472 L -5.4999227 2.9998169 L 5.4999227 2.9998169 L 5.4999227     -5.8089478 A 8 8 0 0 0 0 -8.0000285 A 8 8 0 0 0 -5.4999227 -5.8058472 z " />
      <rect
         style="fill:#333333;stroke:none"
         width="1.5"
         height="4.1999998"
         x="-5.4000001"
         y="-2.0999999"
         rx="0.5" />
      <rect
         style="fill:#333333;stroke:none"
         id="rect441"
         width="1.5"
         height="4.1999998"
         x="3.9000001"
         y="-2.0999999"
         rx="0.5" />
  </g>
  <g id="{{prefix}}wheelchair" transform="scale(0.02) rotate(180) translate(-55,-173)">
    <path
       stroke="none"
       style="fill:#c8beb7"
       d="m 48.06149,189.83177 h -38.89 v -33.33 h 38.89 z"/>
    <path
       stroke="none"
       style="fill:#080808;"
       d="m 81.382974,148.5266 v -4.11718 -4.21485 H 53.61149 v 8.33203 z"/>
    <path
       stroke="none"
       style="fill:#080808;"
       d="m 81.382974,204.0666 v -4.11718 -4.21485 H 53.61149 v 8.33203 z"/>
    <path
       stroke="none"
       class="body"
       d="m 92.497232,199.91402 h -50 v -55.55999 h 50 z" />
    <path
       stroke="none"
       style="fill:#917c6f"
       d="m 92.497232,199.91332 v -2.77148 -52.78711 h -5.558593 v 55.55859 z"/>
  </g>
  <g id="{{prefix}}human" transform="scale(0.02) rotate(180) translate(-50,-175)">
    <g class="body" stroke="none">
    <ellipse
       cx="54.378712"
       cy="172.97321"
       rx="19.763088"
       ry="43.396534" />

    <ellipse
       cx="40.156387"
       cy="134.79787"
       rx="23.189381"
       ry="6.961535" />
    <ellipse
       cx="40.156387"
       cy="211.14854"
       rx="23.189381"
       ry="6.961535" />
    </g>
    <ellipse
       style="fill:#1a1a1a;opacity:0.5"
       cx="54.378712"
       cy="172.90125"
       rx="16.28758"
       ry="16.635132" />
  </g>
</defs>
<style>
<![CDATA[
{% if not include_style_path %}
{% include 'style.css' %}
{% endif %}
{% if style %}
{{style}}
{% endif %}
{% if background_color %}
svg {
   background-color: {{background_color}};
}
{% endif %}
.grid {
  stroke: {{grid_color}};
  stroke-width: {{grid_thickness}};
}
]]>
</style>

<g id="{{prefix}}world" transform='scale(1, -1) {{rotation}}'>

{% if grid %}

{% for x in grid_xs -%}
    <line x1="{{x}}" y1="{{grid_ys[0]}}" x2="{{x}}" y2="{{grid_ys[-1]}}" class="grid"/>
{%- endfor -%}

{%- for y in grid_ys -%}
    <line y1="{{y}}" x1="{{grid_xs[0]}}" y2="{{y}}" x2="{{grid_xs[-1]}}" class="grid"/>
{%- endfor %}

{% endif %}

{{svg_world}}
</g>
</svg>
