<svg xmlns="http://www.w3.org/2000/svg" version="1.1" width="300" height="285" viewBox="-2.30 -2.30 4.48 4.25">

<style>
<![CDATA[
svg{
  style='stroke-width: 0px;
  background-color: snow;
}
.background{
  fill-opacity:0.05;
  fill: grey;
}
circle.obstacle{
  fill: gray; 
  stroke:none;
}
.agent{
  stroke:none;
  fill: orange;
}
polyline.wall{
  stroke:black;
  stroke-width:0.01;
}



]]>
</style>

<g id="world" transform="scale(1, -1)">
<g id="0" class="agent" transform="translate(-2.0, -1.659999966621399)"><circle transform="scale(0.1, 0.1)" cx="0" cy="0" r="1"/></g><g id="1" class="agent" transform="translate(0.2199999988079071, 1.7300000190734863)"><circle transform="scale(0.1, 0.1)" cx="0" cy="0" r="1"/></g><g id="2" class="agent" transform="translate(1.8700000047683716, -1.2400000095367432)"><circle transform="scale(0.1, 0.1)" cx="0" cy="0" r="1"/></g><g id="3" class="agent" transform="translate(0.0, -0.49000000953674316)"><circle transform="scale(0.1, 0.1)" cx="0" cy="0" r="1"/></g><g id="4" class="agent" transform="translate(-0.949999988079071, 0.9700000286102295)"><circle transform="scale(0.1, 0.1)" cx="0" cy="0" r="1"/></g><g id="5" class="agent" transform="translate(-1.6399999856948853, 0.23999999463558197)"><circle transform="scale(0.1, 0.1)" cx="0" cy="0" r="1"/></g><g id="6" class="agent" transform="translate(0.2800000011920929, 0.9800000190734863)"><circle transform="scale(0.1, 0.1)" cx="0" cy="0" r="1"/></g><g id="7" class="agent" transform="translate(0.41999998688697815, 0.12999999523162842)"><circle transform="scale(0.1, 0.1)" cx="0" cy="0" r="1"/></g><g id="8" class="agent" transform="translate(1.7000000476837158, 2.009999990463257)"><circle transform="scale(0.1, 0.1)" cx="0" cy="0" r="1"/></g><g id="9" class="agent" transform="translate(0.949999988079071, 1.9299999475479126)"><circle transform="scale(0.1, 0.1)" cx="0" cy="0" r="1"/></g><rect class="background" height="4.25" width="4.48" x="-2.30" y="-1.95"/>
</g>
</svg>