<svg xmlns="http://www.w3.org/2000/svg" xmlns:xlink="http://www.w3.org/1999/xlink" id="svg" version="1.1" width="300" height="293" viewBox="-2.29 -2.20 4.50 4.40">
<defs>
  <g id="agent" r="1">
  	<circle class="body" cx="0" cy="0" r="1"/>
  	<circle opacity="0.5" fill="black" cx="0.75" cy="0" r="0.25"/>
  </g>
  <g id="thymio" transform="rotate(90) scale(0.125)">
      <path class="body" stroke="none" d="M -5.4999227 -5.8058472 L -5.4999227 2.9998169 L 5.4999227 2.9998169 L 5.4999227     -5.8089478 A 8 8 0 0 0 0 -8.0000285 A 8 8 0 0 0 -5.4999227 -5.8058472 z "/>
      <rect style="fill:#333333;stroke:none" width="1.5" height="4.1999998" x="-5.4000001" y="-2.0999999" rx="0.5"/>
      <rect style="fill:#333333;stroke:none" id="rect441" width="1.5" height="4.1999998" x="3.9000001" y="-2.0999999" rx="0.5"/>
  </g>
  <g id="wheelchair" transform="scale(0.02) rotate(180) translate(-55,-173)">
    <path stroke="none" style="fill:#c8beb7" d="m 48.06149,189.83177 h -38.89 v -33.33 h 38.89 z"/>
    <path stroke="none" style="fill:#080808;" d="m 81.382974,148.5266 v -4.11718 -4.21485 H 53.61149 v 8.33203 z"/>
    <path stroke="none" style="fill:#080808;" d="m 81.382974,204.0666 v -4.11718 -4.21485 H 53.61149 v 8.33203 z"/>
    <path stroke="none" class="body" d="m 92.497232,199.91402 h -50 v -55.55999 h 50 z"/>
    <path stroke="none" style="fill:#917c6f" d="m 92.497232,199.91332 v -2.77148 -52.78711 h -5.558593 v 55.55859 z"/>
  </g>
  <g id="human" transform="scale(0.02) rotate(180) translate(-50,-175)">
    <g class="body" stroke="none">
    <ellipse cx="54.378712" cy="172.97321" rx="19.763088" ry="43.396534"/>

    <ellipse cx="40.156387" cy="134.79787" rx="23.189381" ry="6.961535"/>
    <ellipse cx="40.156387" cy="211.14854" rx="23.189381" ry="6.961535"/>
    </g>
    <ellipse style="fill:#1a1a1a;opacity:0.5" cx="54.378712" cy="172.90125" rx="16.28758" ry="16.635132"/>
  </g>
</defs>
<style>
<![CDATA[

svg{
  style='stroke-width: 0px;
}

circle.obstacle{
  fill: gray; 
  stroke:none;
}
polyline.wall{
  stroke:black;
  stroke-width:0.01;
}

.shape {
  fill: none;
  stroke: black;
  stroke-width: 0.01;
  stroke-dasharray: 0.01;
}

.thymio {
  fill: #e6e6e6;
}

.human {
  fill: #666666;
}

.agent {
  fill: gray;
}

.wheelchair {
  fill: #483e37;
}

.body {
/*    all: inherit;*/
}






svg {
   background-color: snow;
}

]]>
</style>
<g id="world" transform="scale(1, -1)">
<g id="0" class="thymio" style="fill:#e6e6e6" transform="translate(1.297, 1.674) rotate(-67.226)"><use xlink:href="#thymio" transform="scale(0.08, 0.08)"/></g><g id="1" class="thymio" style="fill:#e6e6e6" transform="translate(0.867, 1.542) rotate(-151.734)"><use xlink:href="#thymio" transform="scale(0.08, 0.08)"/></g><g id="2" class="thymio" style="fill:#e6e6e6" transform="translate(1.34, -0.054) rotate(123.125)"><use xlink:href="#thymio" transform="scale(0.08, 0.08)"/></g><g id="3" class="thymio" style="fill:#e6e6e6" transform="translate(-0.543, -0.64) rotate(-68.248)"><use xlink:href="#thymio" transform="scale(0.08, 0.08)"/></g><g id="4" class="thymio" style="fill:#e6e6e6" transform="translate(-1.852, 1.537) rotate(-21.757)"><use xlink:href="#thymio" transform="scale(0.08, 0.08)"/></g><g id="5" class="thymio" style="fill:#e6e6e6" transform="translate(-1.571, 0.886) rotate(-115.824)"><use xlink:href="#thymio" transform="scale(0.08, 0.08)"/></g><g id="6" class="thymio" style="fill:#e6e6e6" transform="translate(1.613, 0.016) rotate(129.117)"><use xlink:href="#thymio" transform="scale(0.08, 0.08)"/></g><g id="7" class="thymio" style="fill:#e6e6e6" transform="translate(-0.698, -0.88) rotate(-58.086)"><use xlink:href="#thymio" transform="scale(0.08, 0.08)"/></g><g id="8" class="thymio" style="fill:#e6e6e6" transform="translate(-1.306, 0.521) rotate(-8.958)"><use xlink:href="#thymio" transform="scale(0.08, 0.08)"/></g><g id="9" class="thymio" style="fill:#e6e6e6" transform="translate(1.004, -0.771) rotate(165.602)"><use xlink:href="#thymio" transform="scale(0.08, 0.08)"/></g><g id="10" class="agent" style="fill:gold" transform="translate(1.57, -1.013) rotate(117.52)"><use xlink:href="#agent" transform="scale(0.089, 0.089)"/></g><g id="11" class="agent" style="fill:gold" transform="translate(-0.3, 0.279) rotate(-82.507)"><use xlink:href="#agent" transform="scale(0.16, 0.16)"/></g><g id="12" class="agent" style="fill:gold" transform="translate(0.111, -1.023) rotate(28.429)"><use xlink:href="#agent" transform="scale(0.151, 0.151)"/></g><g id="13" class="agent" style="fill:gold" transform="translate(-0.935, -0.348) rotate(161.924)"><use xlink:href="#agent" transform="scale(0.101, 0.101)"/></g><g id="14" class="agent" style="fill:gold" transform="translate(-1.028, -1.32) rotate(72.8)"><use xlink:href="#agent" transform="scale(0.058, 0.058)"/></g><g id="15" class="agent" style="fill:gold" transform="translate(-1.897, 0.142) rotate(-48.474)"><use xlink:href="#agent" transform="scale(0.192, 0.192)"/></g><g id="16" class="agent" style="fill:gold" transform="translate(-1.05, 1.287) rotate(-22.887)"><use xlink:href="#agent" transform="scale(0.092, 0.092)"/></g><g id="17" class="agent" style="fill:gold" transform="translate(0.377, 0.778) rotate(-161.873)"><use xlink:href="#agent" transform="scale(0.069, 0.069)"/></g><g id="18" class="agent" style="fill:gold" transform="translate(-1.694, -1.759) rotate(65.744)"><use xlink:href="#agent" transform="scale(0.059, 0.059)"/></g><g id="19" class="agent" style="fill:gold" transform="translate(-1.329, 0.035) rotate(-56.86)"><use xlink:href="#agent" transform="scale(0.063, 0.063)"/></g>
</g>
</svg>