<svg xmlns="http://www.w3.org/2000/svg" xmlns:xlink="http://www.w3.org/1999/xlink" id="svg" version="1.1" width="300" height="300" viewBox="-2.2000 -2.2000 4.4000 4.4000">
<defs>
  <g id="agent" r="1">
  	<circle class="body" cx="0" cy="0" r="1"/>
  	<circle opacity="0.5" fill="black" cx="0.75" cy="0" r="0.25"/>
  </g>
  <g id="thymio" transform="rotate(90) scale(0.125)">
      <path class="body" stroke="none" d="M -5.4999227 -5.8058472 L -5.4999227 2.9998169 L 5.4999227 2.9998169 L 5.4999227     -5.8089478 A 8 8 0 0 0 0 -8.0000285 A 8 8 0 0 0 -5.4999227 -5.8058472 z "/>
      <rect style="fill:#333333;stroke:none" width="1.5" height="4.1999998" x="-5.4000001" y="-2.0999999" rx="0.5"/>
      <rect style="fill:#333333;stroke:none" id="rect441" width="1.5" height="4.1999998" x="3.9000001" y="-2.0999999" rx="0.5"/>
  </g>
  <g id="wheelchair" transform="scale(0.02) rotate(180) translate(-55,-173)">
    <path stroke="none" style="fill:#c8beb7" d="m 48.06149,189.83177 h -38.89 v -33.33 h 38.89 z"/>
    <path stroke="none" style="fill:#080808;" d="m 81.382974,148.5266 v -4.11718 -4.21485 H 53.61149 v 8.33203 z"/>
    <path stroke="none" style="fill:#080808;" d="m 81.382974,204.0666 v -4.11718 -4.21485 H 53.61149 v 8.33203 z"/>
    <path stroke="none" class="body" d="m 92.497232,199.91402 h -50 v -55.55999 h 50 z"/>
    <path stroke="none" style="fill:#917c6f" d="m 92.497232,199.91332 v -2.77148 -52.78711 h -5.558593 v 55.55859 z"/>
  </g>
  <g id="human" transform="scale(0.02) rotate(180) translate(-50,-175)">
    <g class="body" stroke="none">
    <ellipse cx="54.378712" cy="172.97321" rx="19.763088" ry="43.396534"/>

    <ellipse cx="40.156387" cy="134.79787" rx="23.189381" ry="6.961535"/>
    <ellipse cx="40.156387" cy="211.14854" rx="23.189381" ry="6.961535"/>
    </g>
    <ellipse style="fill:#1a1a1a;opacity:0.5" cx="54.378712" cy="172.90125" rx="16.28758" ry="16.635132"/>
  </g>
</defs>
<style>
<![CDATA[

/*svg{
  style=stroke-width: 0px;
}
*/
circle.obstacle{
  fill: gray; 
  stroke:none;
}
polyline.wall{
  stroke:black;
  stroke-width:0.01;
}

.shape {
  fill: none;
  stroke: black;
  stroke-width: 0.01;
  stroke-dasharray: 0.01;
}

.thymio {
  fill: #e6e6e6;
}

.human {
  fill: #666666;
}

.agent {
  fill: gray;
}

.wheelchair {
  fill: #483e37;
}

/*.body {
    all: inherit;
}
*/





svg {
   background-color: snow;
}

.grid {
  stroke: ;
  stroke-width: ;
}
]]>
</style>

<g id="world" transform="scale(1, -1)">
<g id="4" class="thymio" style="fill:#e6e6e6" transform="translate(0.273, -1.858) rotate(47.078)"><use xlink:href="#thymio" transform="scale(0.08, 0.08)"/></g><g id="12" class="agent" style="fill:gold" transform="translate(-0.271, -1.612) rotate(35.373)"><use xlink:href="#agent" transform="scale(0.064, 0.064)"/></g><g id="2" class="thymio" style="fill:#e6e6e6" transform="translate(1.898, -1.362) rotate(119.444)"><use xlink:href="#thymio" transform="scale(0.08, 0.08)"/></g><g id="19" class="agent" style="fill:gold" transform="translate(0.983, -1.329) rotate(-145.679)"><use xlink:href="#agent" transform="scale(0.149, 0.149)"/></g><g id="8" class="thymio" style="fill:#e6e6e6" transform="translate(1.607, -1.184) rotate(71.662)"><use xlink:href="#thymio" transform="scale(0.08, 0.08)"/></g><g id="10" class="agent" style="fill:gold" transform="translate(-1.612, -0.898) rotate(60.917)"><use xlink:href="#agent" transform="scale(0.103, 0.103)"/></g><g id="18" class="agent" style="fill:gold" transform="translate(0.684, -0.808) rotate(103.694)"><use xlink:href="#agent" transform="scale(0.188, 0.188)"/></g><g id="6" class="thymio" style="fill:#e6e6e6" transform="translate(-0.603, -0.708) rotate(77.447)"><use xlink:href="#thymio" transform="scale(0.08, 0.08)"/></g><g id="17" class="agent" style="fill:gold" transform="translate(-0.286, -0.601) rotate(160.661)"><use xlink:href="#agent" transform="scale(0.07, 0.07)"/></g><g id="3" class="thymio" style="fill:#e6e6e6" transform="translate(-0.377, -0.345) rotate(-77.178)"><use xlink:href="#thymio" transform="scale(0.08, 0.08)"/></g><g id="1" class="thymio" style="fill:#e6e6e6" transform="translate(1.794, -0.319) rotate(175.187)"><use xlink:href="#thymio" transform="scale(0.08, 0.08)"/></g><g id="16" class="agent" style="fill:gold" transform="translate(0.778, -0.215) rotate(9.96)"><use xlink:href="#agent" transform="scale(0.198, 0.198)"/></g><g id="5" class="thymio" style="fill:#e6e6e6" transform="translate(-0.168, 0.011) rotate(-179.642)"><use xlink:href="#thymio" transform="scale(0.08, 0.08)"/></g><g id="15" class="agent" style="fill:gold" transform="translate(-1.048, 0.393) rotate(-66.342)"><use xlink:href="#agent" transform="scale(0.084, 0.084)"/></g><g id="11" class="agent" style="fill:gold" transform="translate(0.982, 0.418) rotate(-112.11)"><use xlink:href="#agent" transform="scale(0.171, 0.171)"/></g><g id="0" class="thymio" style="fill:#e6e6e6" transform="translate(0.525, 0.535) rotate(-19.924)"><use xlink:href="#thymio" transform="scale(0.08, 0.08)"/></g><g id="9" class="thymio" style="fill:#e6e6e6" transform="translate(-1.748, 0.67) rotate(-110.646)"><use xlink:href="#thymio" transform="scale(0.08, 0.08)"/></g><g id="13" class="agent" style="fill:gold" transform="translate(-0.028, 0.852) rotate(-156.621)"><use xlink:href="#agent" transform="scale(0.14, 0.14)"/></g><g id="7" class="thymio" style="fill:#e6e6e6" transform="translate(0.241, 1.104) rotate(-94.443)"><use xlink:href="#thymio" transform="scale(0.08, 0.08)"/></g><g id="14" class="agent" style="fill:gold" transform="translate(-0.503, 1.166) rotate(58.893)"><use xlink:href="#agent" transform="scale(0.088, 0.088)"/></g>
</g>
</svg>