<svg xmlns="http://www.w3.org/2000/svg" xmlns:xlink="http://www.w3.org/1999/xlink" id="svg" version="1.1" width="300" height="300" viewBox="-2.20 -2.20 4.40 4.40">
<defs>
  <g id="agent" r="1">
  	<circle class="body" cx="0" cy="0" r="1"/>
  	<circle opacity="0.5" fill="black" cx="0.75" cy="0" r="0.25"/>
  </g>
  <g id="thymio" transform="rotate(90) scale(0.125)">
      <path class="body" stroke="none" d="M -5.4999227 -5.8058472 L -5.4999227 2.9998169 L 5.4999227 2.9998169 L 5.4999227     -5.8089478 A 8 8 0 0 0 0 -8.0000285 A 8 8 0 0 0 -5.4999227 -5.8058472 z "/>
      <rect style="fill:#333333;stroke:none" width="1.5" height="4.1999998" x="-5.4000001" y="-2.0999999" rx="0.5"/>
      <rect style="fill:#333333;stroke:none" id="rect441" width="1.5" height="4.1999998" x="3.9000001" y="-2.0999999" rx="0.5"/>
  </g>
  <g id="wheelchair" transform="scale(0.02) rotate(180) translate(-55,-173)">
    <path stroke="none" style="fill:#c8beb7" d="m 48.06149,189.83177 h -38.89 v -33.33 h 38.89 z"/>
    <path stroke="none" style="fill:#080808;" d="m 81.382974,148.5266 v -4.11718 -4.21485 H 53.61149 v 8.33203 z"/>
    <path stroke="none" style="fill:#080808;" d="m 81.382974,204.0666 v -4.11718 -4.21485 H 53.61149 v 8.33203 z"/>
    <path stroke="none" class="body" d="m 92.497232,199.91402 h -50 v -55.55999 h 50 z"/>
    <path stroke="none" style="fill:#917c6f" d="m 92.497232,199.91332 v -2.77148 -52.78711 h -5.558593 v 55.55859 z"/>
  </g>
  <g id="human" transform="scale(0.02) rotate(180) translate(-50,-175)">
    <g class="body" stroke="none">
    <ellipse cx="54.378712" cy="172.97321" rx="19.763088" ry="43.396534"/>

    <ellipse cx="40.156387" cy="134.79787" rx="23.189381" ry="6.961535"/>
    <ellipse cx="40.156387" cy="211.14854" rx="23.189381" ry="6.961535"/>
    </g>
    <ellipse style="fill:#1a1a1a;opacity:0.5" cx="54.378712" cy="172.90125" rx="16.28758" ry="16.635132"/>
  </g>
</defs>
<style>
<![CDATA[

svg{
  style='stroke-width: 0px;
}

circle.obstacle{
  fill: gray; 
  stroke:none;
}
polyline.wall{
  stroke:black;
  stroke-width:0.01;
}

.shape {
  fill: none;
  stroke: black;
  stroke-width: 0.01;
  stroke-dasharray: 0.01;
}

.thymio {
  fill: #e6e6e6;
}

.human {
  fill: #666666;
}

.agent {
  fill: gray;
}

.wheelchair {
  fill: #483e37;
}

.body {
/*    all: inherit;*/
}






svg {
   background-color: snow;
}

]]>
</style>
<g id="world" transform="scale(1, -1)">
<g id="0" class="thymio" style="fill:#e6e6e6" transform="translate(1.768, 0.584) rotate(-68.336)"><use xlink:href="#thymio" transform="scale(0.08, 0.08)"/></g><g id="1" class="thymio" style="fill:#e6e6e6" transform="translate(-0.109, 0.949) rotate(-149.092)"><use xlink:href="#thymio" transform="scale(0.08, 0.08)"/></g><g id="2" class="thymio" style="fill:#e6e6e6" transform="translate(0.605, 0.864) rotate(130.137)"><use xlink:href="#thymio" transform="scale(0.08, 0.08)"/></g><g id="3" class="thymio" style="fill:#e6e6e6" transform="translate(-0.107, -1.529) rotate(-32.219)"><use xlink:href="#thymio" transform="scale(0.08, 0.08)"/></g><g id="4" class="thymio" style="fill:#e6e6e6" transform="translate(-0.747, 1.132) rotate(-20.735)"><use xlink:href="#thymio" transform="scale(0.08, 0.08)"/></g><g id="5" class="thymio" style="fill:#e6e6e6" transform="translate(-1.257, 0.279) rotate(-5.431)"><use xlink:href="#thymio" transform="scale(0.08, 0.08)"/></g><g id="6" class="thymio" style="fill:#e6e6e6" transform="translate(0.906, 0.965) rotate(131.178)"><use xlink:href="#thymio" transform="scale(0.08, 0.08)"/></g><g id="7" class="thymio" style="fill:#e6e6e6" transform="translate(-0.319, -1.52) rotate(-261.952)"><use xlink:href="#thymio" transform="scale(0.08, 0.08)"/></g><g id="8" class="thymio" style="fill:#e6e6e6" transform="translate(-0.131, 0.337) rotate(-8.98)"><use xlink:href="#thymio" transform="scale(0.08, 0.08)"/></g><g id="9" class="thymio" style="fill:#e6e6e6" transform="translate(-0.105, -0.422) rotate(170.901)"><use xlink:href="#thymio" transform="scale(0.08, 0.08)"/></g><g id="10" class="agent" style="fill:gold" transform="translate(1.034, 0.37) rotate(114.965)"><use xlink:href="#agent" transform="scale(0.089, 0.089)"/></g><g id="11" class="agent" style="fill:gold" transform="translate(0.103, -1.112) rotate(-65.02)"><use xlink:href="#agent" transform="scale(0.16, 0.16)"/></g><g id="12" class="agent" style="fill:gold" transform="translate(1.194, -0.332) rotate(49.223)"><use xlink:href="#agent" transform="scale(0.151, 0.151)"/></g><g id="13" class="agent" style="fill:gold" transform="translate(-1.721, -0.389) rotate(18.557)"><use xlink:href="#agent" transform="scale(0.101, 0.101)"/></g><g id="14" class="agent" style="fill:gold" transform="translate(-0.677, -0.06) rotate(28.954)"><use xlink:href="#agent" transform="scale(0.058, 0.058)"/></g><g id="15" class="agent" style="fill:gold" transform="translate(-1.182, -0.743) rotate(-55.91)"><use xlink:href="#agent" transform="scale(0.192, 0.192)"/></g><g id="16" class="agent" style="fill:gold" transform="translate(0.284, 0.674) rotate(-21.459)"><use xlink:href="#agent" transform="scale(0.092, 0.092)"/></g><g id="17" class="agent" style="fill:gold" transform="translate(-1.044, 0.542) rotate(-171.809)"><use xlink:href="#agent" transform="scale(0.069, 0.069)"/></g><g id="18" class="agent" style="fill:gold" transform="translate(-0.762, -0.796) rotate(27.438)"><use xlink:href="#agent" transform="scale(0.059, 0.059)"/></g><g id="19" class="agent" style="fill:gold" transform="translate(-0.375, -0.962) rotate(-40.85)"><use xlink:href="#agent" transform="scale(0.063, 0.063)"/></g>
</g>
</svg>