<svg xmlns="http://www.w3.org/2000/svg" version="1.1" width="300" height="387" viewBox="-1.69 -2.28 3.38 4.35">

<style>
<![CDATA[
svg{
  style='stroke-width: 0px;
  background-color: snow;
}
.background{
  fill-opacity:0.05;
  fill: grey;
}
circle.obstacle{
  fill: gray; 
  stroke:none;
}
.agent{
  stroke:none;
  fill: orange;
}
polyline.wall{
  stroke:black;
  stroke-width:0.01;
}

.body {
    fill: inherit;
}




]]>
</style>

<g id="world" transform="scale(1, -1)">
<g id="0" class="agent" transform="translate(0.37, 1.38)"><circle transform="scale(0.1, 0.1)" cx="0" cy="0" r="1"/></g><g id="1" class="agent" transform="translate(1.43, 1.39)"><circle transform="scale(0.1, 0.1)" cx="0" cy="0" r="1"/></g><g id="2" class="agent" transform="translate(0.49, -0.46)"><circle transform="scale(0.1, 0.1)" cx="0" cy="0" r="1"/></g><g id="3" class="agent" transform="translate(-0.81, -1.77)"><circle transform="scale(0.1, 0.1)" cx="0" cy="0" r="1"/></g><g id="4" class="agent" transform="translate(-0.93, -0.14)"><circle transform="scale(0.1, 0.1)" cx="0" cy="0" r="1"/></g><g id="5" class="agent" transform="translate(1.25, -0.08)"><circle transform="scale(0.1, 0.1)" cx="0" cy="0" r="1"/></g><g id="6" class="agent" transform="translate(-0.37, 1.26)"><circle transform="scale(0.1, 0.1)" cx="0" cy="0" r="1"/></g><g id="7" class="agent" transform="translate(-0.66, 0.57)"><circle transform="scale(0.1, 0.1)" cx="0" cy="0" r="1"/></g><g id="8" class="agent" transform="translate(-0.56, 1.98)"><circle transform="scale(0.1, 0.1)" cx="0" cy="0" r="1"/></g><g id="9" class="agent" transform="translate(-1.44, 1.48)"><circle transform="scale(0.1, 0.1)" cx="0" cy="0" r="1"/></g><rect class="background" height="4.35" width="3.38" x="-1.69" y="-2.07"/>
</g>
</svg>