<svg xmlns="http://www.w3.org/2000/svg" xmlns:xlink="http://www.w3.org/1999/xlink" id="svg" version="1.1" width="300" height="300" viewBox="-2.2000 -2.2000 4.4000 4.4000">
<defs>
  <g id="agent" r="1">
  	<circle class="body" cx="0" cy="0" r="1"/>
  	<circle opacity="0.5" fill="black" cx="0.75" cy="0" r="0.25"/>
  </g>
  <g id="thymio" transform="rotate(90) scale(0.125)">
      <path class="body" stroke="none" d="M -5.4999227 -5.8058472 L -5.4999227 2.9998169 L 5.4999227 2.9998169 L 5.4999227     -5.8089478 A 8 8 0 0 0 0 -8.0000285 A 8 8 0 0 0 -5.4999227 -5.8058472 z "/>
      <rect style="fill:#333333;stroke:none" width="1.5" height="4.1999998" x="-5.4000001" y="-2.0999999" rx="0.5"/>
      <rect style="fill:#333333;stroke:none" id="rect441" width="1.5" height="4.1999998" x="3.9000001" y="-2.0999999" rx="0.5"/>
  </g>
  <g id="wheelchair" transform="scale(0.02) rotate(180) translate(-55,-173)">
    <path stroke="none" style="fill:#c8beb7" d="m 48.06149,189.83177 h -38.89 v -33.33 h 38.89 z"/>
    <path stroke="none" style="fill:#080808;" d="m 81.382974,148.5266 v -4.11718 -4.21485 H 53.61149 v 8.33203 z"/>
    <path stroke="none" style="fill:#080808;" d="m 81.382974,204.0666 v -4.11718 -4.21485 H 53.61149 v 8.33203 z"/>
    <path stroke="none" class="body" d="m 92.497232,199.91402 h -50 v -55.55999 h 50 z"/>
    <path stroke="none" style="fill:#917c6f" d="m 92.497232,199.91332 v -2.77148 -52.78711 h -5.558593 v 55.55859 z"/>
  </g>
  <g id="human" transform="scale(0.02) rotate(180) translate(-50,-175)">
    <g class="body" stroke="none">
    <ellipse cx="54.378712" cy="172.97321" rx="19.763088" ry="43.396534"/>

    <ellipse cx="40.156387" cy="134.79787" rx="23.189381" ry="6.961535"/>
    <ellipse cx="40.156387" cy="211.14854" rx="23.189381" ry="6.961535"/>
    </g>
    <ellipse style="fill:#1a1a1a;opacity:0.5" cx="54.378712" cy="172.90125" rx="16.28758" ry="16.635132"/>
  </g>
</defs>
<style>
<![CDATA[

/*svg{
  style=stroke-width: 0px;
}
*/
circle.obstacle{
  fill: gray; 
  stroke:none;
}
polyline.wall{
  stroke:black;
  stroke-width:0.01;
}

.shape {
  fill: none;
  stroke: black;
  stroke-width: 0.01;
  stroke-dasharray: 0.01;
}

.thymio {
  fill: #e6e6e6;
}

.human {
  fill: #666666;
}

.agent {
  fill: gray;
}

.wheelchair {
  fill: #483e37;
}

/*.body {
    all: inherit;
}
*/





svg {
   background-color: snow;
}

.grid {
  stroke: ;
  stroke-width: ;
}
]]>
</style>

<g id="world" transform="scale(1, -1) ">



<g id="7" class="thymio" style="fill:#e6e6e6" transform="translate(1.415, -1.801) rotate(-171.986)"><use xlink:href="#thymio" transform="scale(0.08, 0.08)"/></g><g id="16" class="agent" style="fill:gold" transform="translate(0.928, -1.44) rotate(53.325)"><use xlink:href="#agent" transform="scale(0.13, 0.13)"/></g><g id="17" class="agent" style="fill:gold" transform="translate(1.434, -1.411) rotate(157.662)"><use xlink:href="#agent" transform="scale(0.089, 0.089)"/></g><g id="8" class="thymio" style="fill:#e6e6e6" transform="translate(-1.037, -1.266) rotate(22.636)"><use xlink:href="#thymio" transform="scale(0.08, 0.08)"/></g><g id="14" class="agent" style="fill:gold" transform="translate(0.385, -1.266) rotate(96.716)"><use xlink:href="#agent" transform="scale(0.051, 0.051)"/></g><g id="18" class="agent" style="fill:gold" transform="translate(0.365, -0.91) rotate(97.148)"><use xlink:href="#agent" transform="scale(0.103, 0.103)"/></g><g id="3" class="thymio" style="fill:#e6e6e6" transform="translate(-0.289, -0.861) rotate(-75.735)"><use xlink:href="#thymio" transform="scale(0.08, 0.08)"/></g><g id="13" class="agent" style="fill:gold" transform="translate(1.437, -0.846) rotate(166.175)"><use xlink:href="#agent" transform="scale(0.187, 0.187)"/></g><g id="2" class="thymio" style="fill:#e6e6e6" transform="translate(1.05, -0.825) rotate(110.39)"><use xlink:href="#thymio" transform="scale(0.08, 0.08)"/></g><g id="10" class="agent" style="fill:gold" transform="translate(-1.364, -0.735) rotate(63.506)"><use xlink:href="#agent" transform="scale(0.182, 0.182)"/></g><g id="4" class="thymio" style="fill:#e6e6e6" transform="translate(-0.175, -0.604) rotate(15.517)"><use xlink:href="#thymio" transform="scale(0.08, 0.08)"/></g><g id="5" class="thymio" style="fill:#e6e6e6" transform="translate(1.49, -0.461) rotate(172.482)"><use xlink:href="#thymio" transform="scale(0.08, 0.08)"/></g><g id="19" class="agent" style="fill:gold" transform="translate(0.059, -0.155) rotate(-91.818)"><use xlink:href="#agent" transform="scale(0.055, 0.055)"/></g><g id="12" class="agent" style="fill:gold" transform="translate(1.491, 0.125) rotate(-13.827)"><use xlink:href="#agent" transform="scale(0.079, 0.079)"/></g><g id="0" class="thymio" style="fill:#e6e6e6" transform="translate(1.274, 0.304) rotate(-22.733)"><use xlink:href="#thymio" transform="scale(0.08, 0.08)"/></g><g id="6" class="thymio" style="fill:#e6e6e6" transform="translate(-0.569, 0.627) rotate(67.483)"><use xlink:href="#thymio" transform="scale(0.08, 0.08)"/></g><g id="11" class="agent" style="fill:gold" transform="translate(0.6, 0.904) rotate(-101.664)"><use xlink:href="#agent" transform="scale(0.077, 0.077)"/></g><g id="9" class="thymio" style="fill:#e6e6e6" transform="translate(0.454, 1.732) rotate(-144.79)"><use xlink:href="#thymio" transform="scale(0.08, 0.08)"/></g><g id="15" class="agent" style="fill:gold" transform="translate(0.013, 1.86) rotate(-90.197)"><use xlink:href="#agent" transform="scale(0.068, 0.068)"/></g><g id="1" class="thymio" style="fill:#e6e6e6" transform="translate(0.27, 1.944) rotate(-139.414)"><use xlink:href="#thymio" transform="scale(0.08, 0.08)"/></g>
</g>
</svg>