<svg xmlns="http://www.w3.org/2000/svg" xmlns:xlink="http://www.w3.org/1999/xlink" id="svg" version="1.1" width="300" height="300" viewBox="-2.2000 -2.2000 4.4000 4.4000">
<defs>
  <g id="agent" r="1">
  	<circle class="body" cx="0" cy="0" r="1"/>
  	<circle opacity="0.5" fill="black" cx="0.75" cy="0" r="0.25"/>
  </g>
  <g id="thymio" transform="rotate(90) scale(0.125)">
      <path class="body" stroke="none" d="M -5.4999227 -5.8058472 L -5.4999227 2.9998169 L 5.4999227 2.9998169 L 5.4999227     -5.8089478 A 8 8 0 0 0 0 -8.0000285 A 8 8 0 0 0 -5.4999227 -5.8058472 z "/>
      <rect style="fill:#333333;stroke:none" width="1.5" height="4.1999998" x="-5.4000001" y="-2.0999999" rx="0.5"/>
      <rect style="fill:#333333;stroke:none" id="rect441" width="1.5" height="4.1999998" x="3.9000001" y="-2.0999999" rx="0.5"/>
  </g>
  <g id="wheelchair" transform="scale(0.02) rotate(180) translate(-55,-173)">
    <path stroke="none" style="fill:#c8beb7" d="m 48.06149,189.83177 h -38.89 v -33.33 h 38.89 z"/>
    <path stroke="none" style="fill:#080808;" d="m 81.382974,148.5266 v -4.11718 -4.21485 H 53.61149 v 8.33203 z"/>
    <path stroke="none" style="fill:#080808;" d="m 81.382974,204.0666 v -4.11718 -4.21485 H 53.61149 v 8.33203 z"/>
    <path stroke="none" class="body" d="m 92.497232,199.91402 h -50 v -55.55999 h 50 z"/>
    <path stroke="none" style="fill:#917c6f" d="m 92.497232,199.91332 v -2.77148 -52.78711 h -5.558593 v 55.55859 z"/>
  </g>
  <g id="human" transform="scale(0.02) rotate(180) translate(-50,-175)">
    <g class="body" stroke="none">
    <ellipse cx="54.378712" cy="172.97321" rx="19.763088" ry="43.396534"/>

    <ellipse cx="40.156387" cy="134.79787" rx="23.189381" ry="6.961535"/>
    <ellipse cx="40.156387" cy="211.14854" rx="23.189381" ry="6.961535"/>
    </g>
    <ellipse style="fill:#1a1a1a;opacity:0.5" cx="54.378712" cy="172.90125" rx="16.28758" ry="16.635132"/>
  </g>
</defs>
<style>
<![CDATA[

/*svg{
  style=stroke-width: 0px;
}
*/
circle.obstacle{
  fill: gray; 
  stroke:none;
}
polyline.wall{
  stroke:black;
  stroke-width:0.01;
}

.shape {
  fill: none;
  stroke: black;
  stroke-width: 0.01;
  stroke-dasharray: 0.01;
}

.thymio {
  fill: #e6e6e6;
}

.human {
  fill: #666666;
}

.agent {
  fill: gray;
}

.wheelchair {
  fill: #483e37;
}

/*.body {
    all: inherit;
}
*/





svg {
   background-color: snow;
}

.grid {
  stroke: ;
  stroke-width: ;
}
]]>
</style>

<g id="world" transform="scale(1, -1)">
<g id="19" class="agent" style="fill:gold" transform="translate(-0.256, -1.574) rotate(75.404)"><use xlink:href="#agent" transform="scale(0.123, 0.123)"/></g><g id="3" class="thymio" style="fill:#e6e6e6" transform="translate(0.55, -1.539) rotate(-140.004)"><use xlink:href="#thymio" transform="scale(0.08, 0.08)"/></g><g id="0" class="thymio" style="fill:#e6e6e6" transform="translate(-0.432, -1.211) rotate(6.65)"><use xlink:href="#thymio" transform="scale(0.08, 0.08)"/></g><g id="11" class="agent" style="fill:gold" transform="translate(-0.262, -0.9) rotate(0.09)"><use xlink:href="#agent" transform="scale(0.197, 0.197)"/></g><g id="7" class="thymio" style="fill:#e6e6e6" transform="translate(0.368, -0.844) rotate(89.158)"><use xlink:href="#thymio" transform="scale(0.08, 0.08)"/></g><g id="15" class="agent" style="fill:gold" transform="translate(0.038, -0.612) rotate(122.292)"><use xlink:href="#agent" transform="scale(0.095, 0.095)"/></g><g id="12" class="agent" style="fill:gold" transform="translate(0.772, -0.61) rotate(12.299)"><use xlink:href="#agent" transform="scale(0.146, 0.146)"/></g><g id="9" class="thymio" style="fill:#e6e6e6" transform="translate(-0.289, -0.209) rotate(174.709)"><use xlink:href="#thymio" transform="scale(0.08, 0.08)"/></g><g id="17" class="agent" style="fill:gold" transform="translate(0.704, -0.142) rotate(171.756)"><use xlink:href="#agent" transform="scale(0.2, 0.2)"/></g><g id="1" class="thymio" style="fill:#e6e6e6" transform="translate(-1.018, 0.07) rotate(31.168)"><use xlink:href="#thymio" transform="scale(0.08, 0.08)"/></g><g id="8" class="thymio" style="fill:#e6e6e6" transform="translate(-0.057, 0.159) rotate(24.352)"><use xlink:href="#thymio" transform="scale(0.08, 0.08)"/></g><g id="6" class="thymio" style="fill:#e6e6e6" transform="translate(0.459, 0.265) rotate(107.865)"><use xlink:href="#thymio" transform="scale(0.08, 0.08)"/></g><g id="5" class="thymio" style="fill:#e6e6e6" transform="translate(-1.478, 0.279) rotate(13.654)"><use xlink:href="#thymio" transform="scale(0.08, 0.08)"/></g><g id="16" class="agent" style="fill:gold" transform="translate(0.717, 0.509) rotate(0.892)"><use xlink:href="#agent" transform="scale(0.193, 0.193)"/></g><g id="14" class="agent" style="fill:gold" transform="translate(0.785, 0.918) rotate(123.384)"><use xlink:href="#agent" transform="scale(0.054, 0.054)"/></g><g id="4" class="thymio" style="fill:#e6e6e6" transform="translate(0.041, 0.957) rotate(-11.169)"><use xlink:href="#thymio" transform="scale(0.08, 0.08)"/></g><g id="18" class="agent" style="fill:gold" transform="translate(-0.642, 1.382) rotate(78.92)"><use xlink:href="#agent" transform="scale(0.1, 0.1)"/></g><g id="13" class="agent" style="fill:gold" transform="translate(-0.009, 1.452) rotate(-160.226)"><use xlink:href="#agent" transform="scale(0.126, 0.126)"/></g><g id="2" class="thymio" style="fill:#e6e6e6" transform="translate(0.377, 1.531) rotate(135.027)"><use xlink:href="#thymio" transform="scale(0.08, 0.08)"/></g><g id="10" class="agent" style="fill:gold" transform="translate(-0.636, 1.715) rotate(47.321)"><use xlink:href="#agent" transform="scale(0.08, 0.08)"/></g>
</g>
</svg>