<svg xmlns="http://www.w3.org/2000/svg" xmlns:xlink="http://www.w3.org/1999/xlink" id="svg" version="1.1" width="300" height="387" viewBox="-1.6921 -2.2828 3.3774 4.3539">
<defs>
  <g id="agent" r="1">
  	<circle class="body" cx="0" cy="0" r="1"/>
  	<circle opacity="0.5" fill="black" cx="0.75" cy="0" r="0.25"/>
  </g>
  <g id="thymio" transform="rotate(90) scale(0.125)">
      <path class="body" stroke="none" d="M -5.4999227 -5.8058472 L -5.4999227 2.9998169 L 5.4999227 2.9998169 L 5.4999227     -5.8089478 A 8 8 0 0 0 0 -8.0000285 A 8 8 0 0 0 -5.4999227 -5.8058472 z "/>
      <rect style="fill:#333333;stroke:none" width="1.5" height="4.1999998" x="-5.4000001" y="-2.0999999" rx="0.5"/>
      <rect style="fill:#333333;stroke:none" id="rect441" width="1.5" height="4.1999998" x="3.9000001" y="-2.0999999" rx="0.5"/>
  </g>
  <g id="wheelchair" transform="scale(0.02) rotate(180) translate(-55,-173)">
    <path stroke="none" style="fill:#c8beb7" d="m 48.06149,189.83177 h -38.89 v -33.33 h 38.89 z"/>
    <path stroke="none" style="fill:#080808;" d="m 81.382974,148.5266 v -4.11718 -4.21485 H 53.61149 v 8.33203 z"/>
    <path stroke="none" style="fill:#080808;" d="m 81.382974,204.0666 v -4.11718 -4.21485 H 53.61149 v 8.33203 z"/>
    <path stroke="none" class="body" d="m 92.497232,199.91402 h -50 v -55.55999 h 50 z"/>
    <path stroke="none" style="fill:#917c6f" d="m 92.497232,199.91332 v -2.77148 -52.78711 h -5.558593 v 55.55859 z"/>
  </g>
  <g id="human" transform="scale(0.02) rotate(180) translate(-50,-175)">
    <g class="body" stroke="none">
    <ellipse cx="54.378712" cy="172.97321" rx="19.763088" ry="43.396534"/>

    <ellipse cx="40.156387" cy="134.79787" rx="23.189381" ry="6.961535"/>
    <ellipse cx="40.156387" cy="211.14854" rx="23.189381" ry="6.961535"/>
    </g>
    <ellipse style="fill:#1a1a1a;opacity:0.5" cx="54.378712" cy="172.90125" rx="16.28758" ry="16.635132"/>
  </g>
</defs>
<style>
<![CDATA[

/*svg{
  style=stroke-width: 0px;
}
*/
circle.obstacle{
  fill: gray; 
  stroke:none;
}
polyline.wall{
  stroke:black;
  stroke-width:0.01;
}

.shape {
  fill: none;
  stroke: black;
  stroke-width: 0.01;
  stroke-dasharray: 0.01;
}

.thymio {
  fill: #e6e6e6;
}

.human {
  fill: #666666;
}

.agent {
  fill: gray;
}

.wheelchair {
  fill: #483e37;
}

/*.body {
    all: inherit;
}
*/





svg {
   background-color: snow;
}

.grid {
  stroke: ;
  stroke-width: ;
}
]]>
</style>

<g id="world" transform="scale(1, -1)">
<g id="3" class="agent" transform="translate(-0.81, -1.773) rotate(-41.908)"><use xlink:href="#agent" transform="scale(0.1, 0.1)"/></g><g id="2" class="agent" transform="translate(0.494, -0.462) rotate(99.472)"><use xlink:href="#agent" transform="scale(0.1, 0.1)"/></g><g id="4" class="agent" transform="translate(-0.927, -0.135) rotate(2.258)"><use xlink:href="#agent" transform="scale(0.1, 0.1)"/></g><g id="5" class="agent" transform="translate(1.249, -0.08) rotate(178.776)"><use xlink:href="#agent" transform="scale(0.1, 0.1)"/></g><g id="7" class="agent" transform="translate(-0.662, 0.567) rotate(-77.819)"><use xlink:href="#agent" transform="scale(0.1, 0.1)"/></g><g id="6" class="agent" transform="translate(-0.369, 1.259) rotate(73.455)"><use xlink:href="#agent" transform="scale(0.1, 0.1)"/></g><g id="0" class="agent" transform="translate(0.373, 1.377) rotate(-32.925)"><use xlink:href="#agent" transform="scale(0.1, 0.1)"/></g><g id="1" class="agent" transform="translate(1.432, 1.389) rotate(-160.543)"><use xlink:href="#agent" transform="scale(0.1, 0.1)"/></g><g id="9" class="agent" transform="translate(-1.439, 1.48) rotate(-125.64)"><use xlink:href="#agent" transform="scale(0.1, 0.1)"/></g><g id="8" class="agent" transform="translate(-0.56, 1.985) rotate(-32.97)"><use xlink:href="#agent" transform="scale(0.1, 0.1)"/></g>
</g>
</svg>