<svg xmlns="http://www.w3.org/2000/svg" xmlns:xlink="http://www.w3.org/1999/xlink" id="svg" version="1.1" width="300" height="299" viewBox="-2.20 -2.20 4.41 4.40">
<defs>
  <g id="agent" r="1">
  	<circle class="body" cx="0" cy="0" r="1"/>
  	<circle opacity="0.5" fill="black" cx="0.75" cy="0" r="0.25"/>
  </g>
  <g id="thymio" transform="rotate(90) scale(0.125)">
      <path class="body" stroke="none" d="M -5.4999227 -5.8058472 L -5.4999227 2.9998169 L 5.4999227 2.9998169 L 5.4999227     -5.8089478 A 8 8 0 0 0 0 -8.0000285 A 8 8 0 0 0 -5.4999227 -5.8058472 z "/>
      <rect style="fill:#333333;stroke:none" width="1.5" height="4.1999998" x="-5.4000001" y="-2.0999999" rx="0.5"/>
      <rect style="fill:#333333;stroke:none" id="rect441" width="1.5" height="4.1999998" x="3.9000001" y="-2.0999999" rx="0.5"/>
  </g>
  <g id="wheelchair" transform="scale(0.02) rotate(180) translate(-55,-173)">
    <path stroke="none" style="fill:#c8beb7" d="m 48.06149,189.83177 h -38.89 v -33.33 h 38.89 z"/>
    <path stroke="none" style="fill:#080808;" d="m 81.382974,148.5266 v -4.11718 -4.21485 H 53.61149 v 8.33203 z"/>
    <path stroke="none" style="fill:#080808;" d="m 81.382974,204.0666 v -4.11718 -4.21485 H 53.61149 v 8.33203 z"/>
    <path stroke="none" class="body" d="m 92.497232,199.91402 h -50 v -55.55999 h 50 z"/>
    <path stroke="none" style="fill:#917c6f" d="m 92.497232,199.91332 v -2.77148 -52.78711 h -5.558593 v 55.55859 z"/>
  </g>
  <g id="human" transform="scale(0.02) rotate(180) translate(-50,-175)">
    <g class="body" stroke="none">
    <ellipse cx="54.378712" cy="172.97321" rx="19.763088" ry="43.396534"/>

    <ellipse cx="40.156387" cy="134.79787" rx="23.189381" ry="6.961535"/>
    <ellipse cx="40.156387" cy="211.14854" rx="23.189381" ry="6.961535"/>
    </g>
    <ellipse style="fill:#1a1a1a;opacity:0.5" cx="54.378712" cy="172.90125" rx="16.28758" ry="16.635132"/>
  </g>
</defs>
<style>
<![CDATA[

svg{
  style='stroke-width: 0px;
}

circle.obstacle{
  fill: gray; 
  stroke:none;
}
polyline.wall{
  stroke:black;
  stroke-width:0.01;
}

.shape {
  fill: none;
  stroke: black;
  stroke-width: 0.01;
  stroke-dasharray: 0.01;
}

.thymio {
  fill: #e6e6e6;
}

.human {
  fill: #666666;
}

.agent {
  fill: gray;
}

.wheelchair {
  fill: #483e37;
}

.body {
    all: inherit;
}






svg {
   background-color: snow;
}

]]>
</style>
<g id="world" transform="scale(1, -1)">
<g id="0" class="thymio" style="fill:#e6e6e6" transform="translate(0.01, -0.846) rotate(23.024)"><use xlink:href="#thymio" transform="scale(0.08, 0.08)"/></g><g id="1" class="thymio" style="fill:#e6e6e6" transform="translate(1.38, -0.509) rotate(171.433)"><use xlink:href="#thymio" transform="scale(0.08, 0.08)"/></g><g id="2" class="thymio" style="fill:#e6e6e6" transform="translate(-1.328, 1.184) rotate(31.567)"><use xlink:href="#thymio" transform="scale(0.08, 0.08)"/></g><g id="3" class="thymio" style="fill:#e6e6e6" transform="translate(1.478, 0.674) rotate(-118.937)"><use xlink:href="#thymio" transform="scale(0.08, 0.08)"/></g><g id="4" class="thymio" style="fill:#e6e6e6" transform="translate(0.848, 1.588) rotate(-54.038)"><use xlink:href="#thymio" transform="scale(0.08, 0.08)"/></g><g id="5" class="thymio" style="fill:#e6e6e6" transform="translate(1.191, 0.042) rotate(-179.245)"><use xlink:href="#thymio" transform="scale(0.08, 0.08)"/></g><g id="6" class="thymio" style="fill:#e6e6e6" transform="translate(1.93, 0.58) rotate(143.649)"><use xlink:href="#thymio" transform="scale(0.08, 0.08)"/></g><g id="7" class="thymio" style="fill:#e6e6e6" transform="translate(0.915, -0.016) rotate(-114.749)"><use xlink:href="#thymio" transform="scale(0.08, 0.08)"/></g><g id="8" class="thymio" style="fill:#e6e6e6" transform="translate(1.781, -0.346) rotate(57.69)"><use xlink:href="#thymio" transform="scale(0.08, 0.08)"/></g><g id="9" class="thymio" style="fill:#e6e6e6" transform="translate(-0.739, 0.694) rotate(-151.195)"><use xlink:href="#thymio" transform="scale(0.08, 0.08)"/></g><g id="10" class="agent" style="fill:gold" transform="translate(1.358, -0.209) rotate(121.582)"><use xlink:href="#agent" transform="scale(0.1, 0.1)"/></g><g id="11" class="agent" style="fill:gold" transform="translate(0.6, -0.159) rotate(-108.068)"><use xlink:href="#agent" transform="scale(0.145, 0.145)"/></g><g id="12" class="agent" style="fill:gold" transform="translate(-0.498, -0.489) rotate(11.068)"><use xlink:href="#agent" transform="scale(0.167, 0.167)"/></g><g id="13" class="agent" style="fill:gold" transform="translate(-0.567, -1.498) rotate(133.72)"><use xlink:href="#agent" transform="scale(0.134, 0.134)"/></g><g id="14" class="agent" style="fill:gold" transform="translate(1.631, 1.437) rotate(160.952)"><use xlink:href="#agent" transform="scale(0.141, 0.141)"/></g><g id="15" class="agent" style="fill:gold" transform="translate(1.225, 0.451) rotate(-116.563)"><use xlink:href="#agent" transform="scale(0.136, 0.136)"/></g><g id="16" class="agent" style="fill:gold" transform="translate(-1.54, 0.046) rotate(-0.746)"><use xlink:href="#agent" transform="scale(0.095, 0.095)"/></g><g id="17" class="agent" style="fill:gold" transform="translate(1.757, 0.906) rotate(-166.437)"><use xlink:href="#agent" transform="scale(0.161, 0.161)"/></g><g id="18" class="agent" style="fill:gold" transform="translate(0.057, -0.461) rotate(91.332)"><use xlink:href="#agent" transform="scale(0.185, 0.185)"/></g><g id="19" class="agent" style="fill:gold" transform="translate(0.899, -0.489) rotate(-120.77)"><use xlink:href="#agent" transform="scale(0.083, 0.083)"/></g>
</g>
</svg>