<svg xmlns="http://www.w3.org/2000/svg" xmlns:xlink="http://www.w3.org/1999/xlink" id="svg" version="1.1" width="300" height="300" viewBox="-2.2000 -2.2000 4.4000 4.4000">
<defs>
  <g id="agent" r="1">
  	<circle class="body" cx="0" cy="0" r="1"/>
  	<circle opacity="0.5" fill="black" cx="0.75" cy="0" r="0.25"/>
  </g>
  <g id="thymio" transform="rotate(90) scale(0.125)">
      <path class="body" stroke="none" d="M -5.4999227 -5.8058472 L -5.4999227 2.9998169 L 5.4999227 2.9998169 L 5.4999227     -5.8089478 A 8 8 0 0 0 0 -8.0000285 A 8 8 0 0 0 -5.4999227 -5.8058472 z "/>
      <rect style="fill:#333333;stroke:none" width="1.5" height="4.1999998" x="-5.4000001" y="-2.0999999" rx="0.5"/>
      <rect style="fill:#333333;stroke:none" id="rect441" width="1.5" height="4.1999998" x="3.9000001" y="-2.0999999" rx="0.5"/>
  </g>
  <g id="wheelchair" transform="scale(0.02) rotate(180) translate(-55,-173)">
    <path stroke="none" style="fill:#c8beb7" d="m 48.06149,189.83177 h -38.89 v -33.33 h 38.89 z"/>
    <path stroke="none" style="fill:#080808;" d="m 81.382974,148.5266 v -4.11718 -4.21485 H 53.61149 v 8.33203 z"/>
    <path stroke="none" style="fill:#080808;" d="m 81.382974,204.0666 v -4.11718 -4.21485 H 53.61149 v 8.33203 z"/>
    <path stroke="none" class="body" d="m 92.497232,199.91402 h -50 v -55.55999 h 50 z"/>
    <path stroke="none" style="fill:#917c6f" d="m 92.497232,199.91332 v -2.77148 -52.78711 h -5.558593 v 55.55859 z"/>
  </g>
  <g id="human" transform="scale(0.02) rotate(180) translate(-50,-175)">
    <g class="body" stroke="none">
    <ellipse cx="54.378712" cy="172.97321" rx="19.763088" ry="43.396534"/>

    <ellipse cx="40.156387" cy="134.79787" rx="23.189381" ry="6.961535"/>
    <ellipse cx="40.156387" cy="211.14854" rx="23.189381" ry="6.961535"/>
    </g>
    <ellipse style="fill:#1a1a1a;opacity:0.5" cx="54.378712" cy="172.90125" rx="16.28758" ry="16.635132"/>
  </g>
</defs>
<style>
<![CDATA[

/*svg{
  style=stroke-width: 0px;
}
*/
circle.obstacle{
  fill: gray; 
  stroke:none;
}
polyline.wall{
  stroke:black;
  stroke-width:0.01;
}

.shape {
  fill: none;
  stroke: black;
  stroke-width: 0.01;
  stroke-dasharray: 0.01;
}

.thymio {
  fill: #e6e6e6;
}

.human {
  fill: #666666;
}

.agent {
  fill: gray;
}

.wheelchair {
  fill: #483e37;
}

/*.body {
    all: inherit;
}
*/





svg {
   background-color: snow;
}

.grid {
  stroke: ;
  stroke-width: ;
}
]]>
</style>

<g id="world" transform="scale(1, -1)">
<g id="19" class="agent" style="fill:#fdd07d" transform="translate(0.471, -1.747) rotate(-295.252)"><use xlink:href="#agent" transform="scale(0.149, 0.149)"/></g><g id="3" class="thymio" style="fill:#36a557" transform="translate(-0.095, -1.345) rotate(-77.847)"><use xlink:href="#thymio" transform="scale(0.08, 0.08)"/></g><g id="4" class="thymio" style="fill:#9fd669" transform="translate(1.104, -1.056) rotate(50.229)"><use xlink:href="#thymio" transform="scale(0.08, 0.08)"/></g><g id="15" class="agent" style="fill:#70c164" transform="translate(-0.731, -0.951) rotate(-74.251)"><use xlink:href="#agent" transform="scale(0.084, 0.084)"/></g><g id="12" class="agent" style="fill:#7ac565" transform="translate(0.897, -0.831) rotate(40.783)"><use xlink:href="#agent" transform="scale(0.064, 0.064)"/></g><g id="11" class="agent" style="fill:#75c364" transform="translate(0.416, -0.73) rotate(-124.399)"><use xlink:href="#agent" transform="scale(0.171, 0.171)"/></g><g id="17" class="agent" style="fill:#39a757" transform="translate(-1.415, -0.612) rotate(130.953)"><use xlink:href="#agent" transform="scale(0.07, 0.07)"/></g><g id="2" class="thymio" style="fill:#fee899" transform="translate(1.277, -0.426) rotate(136.456)"><use xlink:href="#thymio" transform="scale(0.08, 0.08)"/></g><g id="1" class="thymio" style="fill:#fee99b" transform="translate(0.697, -0.395) rotate(171.733)"><use xlink:href="#thymio" transform="scale(0.08, 0.08)"/></g><g id="8" class="thymio" style="fill:#f88e52" transform="translate(1.567, -0.376) rotate(169.937)"><use xlink:href="#thymio" transform="scale(0.08, 0.08)"/></g><g id="7" class="thymio" style="fill:#daef8d" transform="translate(0.146, -0.07) rotate(-95.703)"><use xlink:href="#thymio" transform="scale(0.08, 0.08)"/></g><g id="18" class="agent" style="fill:#bbe277" transform="translate(-0.363, -0.0) rotate(93.687)"><use xlink:href="#agent" transform="scale(0.188, 0.188)"/></g><g id="5" class="thymio" style="fill:#36a557" transform="translate(-1.34, 0.006) rotate(-179.47)"><use xlink:href="#thymio" transform="scale(0.08, 0.08)"/></g><g id="16" class="agent" style="fill:#feefa5" transform="translate(1.287, 0.014) rotate(143.557)"><use xlink:href="#agent" transform="scale(0.198, 0.198)"/></g><g id="0" class="thymio" style="fill:#006837" transform="translate(1.577, 0.245) rotate(-29.534)"><use xlink:href="#thymio" transform="scale(0.08, 0.08)"/></g><g id="10" class="agent" style="fill:#c1e47b" transform="translate(-1.312, 0.352) rotate(65.125)"><use xlink:href="#agent" transform="scale(0.103, 0.103)"/></g><g id="6" class="thymio" style="fill:#b9e176" transform="translate(-0.403, 0.445) rotate(75.618)"><use xlink:href="#thymio" transform="scale(0.08, 0.08)"/></g><g id="9" class="thymio" style="fill:#fdcc7a" transform="translate(-1.018, 0.514) rotate(17.565)"><use xlink:href="#thymio" transform="scale(0.08, 0.08)"/></g><g id="13" class="agent" style="fill:#42ab5a" transform="translate(-1.49, 0.756) rotate(-159.662)"><use xlink:href="#agent" transform="scale(0.14, 0.14)"/></g><g id="14" class="agent" style="fill:#fefebd" transform="translate(-0.028, 0.976) rotate(-79.789)"><use xlink:href="#agent" transform="scale(0.088, 0.088)"/></g>
</g>
</svg>