<svg xmlns="http://www.w3.org/2000/svg" xmlns:xlink="http://www.w3.org/1999/xlink" id="svg" version="1.1" width="300" height="300" viewBox="-2.2000 -2.2000 4.4000 4.4000">
<defs>
  <g id="agent" r="1">
  	<circle class="body" cx="0" cy="0" r="1"/>
  	<circle opacity="0.5" fill="black" cx="0.75" cy="0" r="0.25"/>
  </g>
  <g id="thymio" transform="rotate(90) scale(0.125)">
      <path class="body" stroke="none" d="M -5.4999227 -5.8058472 L -5.4999227 2.9998169 L 5.4999227 2.9998169 L 5.4999227     -5.8089478 A 8 8 0 0 0 0 -8.0000285 A 8 8 0 0 0 -5.4999227 -5.8058472 z "/>
      <rect style="fill:#333333;stroke:none" width="1.5" height="4.1999998" x="-5.4000001" y="-2.0999999" rx="0.5"/>
      <rect style="fill:#333333;stroke:none" id="rect441" width="1.5" height="4.1999998" x="3.9000001" y="-2.0999999" rx="0.5"/>
  </g>
  <g id="wheelchair" transform="scale(0.02) rotate(180) translate(-55,-173)">
    <path stroke="none" style="fill:#c8beb7" d="m 48.06149,189.83177 h -38.89 v -33.33 h 38.89 z"/>
    <path stroke="none" style="fill:#080808;" d="m 81.382974,148.5266 v -4.11718 -4.21485 H 53.61149 v 8.33203 z"/>
    <path stroke="none" style="fill:#080808;" d="m 81.382974,204.0666 v -4.11718 -4.21485 H 53.61149 v 8.33203 z"/>
    <path stroke="none" class="body" d="m 92.497232,199.91402 h -50 v -55.55999 h 50 z"/>
    <path stroke="none" style="fill:#917c6f" d="m 92.497232,199.91332 v -2.77148 -52.78711 h -5.558593 v 55.55859 z"/>
  </g>
  <g id="human" transform="scale(0.02) rotate(180) translate(-50,-175)">
    <g class="body" stroke="none">
    <ellipse cx="54.378712" cy="172.97321" rx="19.763088" ry="43.396534"/>

    <ellipse cx="40.156387" cy="134.79787" rx="23.189381" ry="6.961535"/>
    <ellipse cx="40.156387" cy="211.14854" rx="23.189381" ry="6.961535"/>
    </g>
    <ellipse style="fill:#1a1a1a;opacity:0.5" cx="54.378712" cy="172.90125" rx="16.28758" ry="16.635132"/>
  </g>
</defs>
<style>
<![CDATA[

/*svg{
  style=stroke-width: 0px;
}
*/
circle.obstacle{
  fill: gray; 
  stroke:none;
}
polyline.wall{
  stroke:black;
  stroke-width:0.01;
}

.shape {
  fill: none;
  stroke: black;
  stroke-width: 0.01;
  stroke-dasharray: 0.01;
}

.thymio {
  fill: #e6e6e6;
}

.human {
  fill: #666666;
}

.agent {
  fill: gray;
}

.wheelchair {
  fill: #483e37;
}

/*.body {
    all: inherit;
}
*/





svg {
   background-color: snow;
}

.grid {
  stroke: ;
  stroke-width: ;
}
]]>
</style>

<g id="world" transform="scale(1, -1)">
<g id="0" class="thymio" style="fill:#e6e6e6" transform="translate(-1.406, -1.749) rotate(27.187)"><use xlink:href="#thymio" transform="scale(0.08, 0.08)"/></g><g id="15" class="agent" style="fill:gold" transform="translate(-0.367, -1.61) rotate(-46.702)"><use xlink:href="#agent" transform="scale(0.095, 0.095)"/></g><g id="7" class="thymio" style="fill:#e6e6e6" transform="translate(0.207, -1.284) rotate(-106.115)"><use xlink:href="#thymio" transform="scale(0.08, 0.08)"/></g><g id="19" class="agent" style="fill:gold" transform="translate(-0.755, -1.041) rotate(-51.797)"><use xlink:href="#agent" transform="scale(0.123, 0.123)"/></g><g id="11" class="agent" style="fill:gold" transform="translate(-1.631, -0.852) rotate(-35.136)"><use xlink:href="#agent" transform="scale(0.197, 0.197)"/></g><g id="6" class="thymio" style="fill:#e6e6e6" transform="translate(0.704, -0.789) rotate(104.16)"><use xlink:href="#thymio" transform="scale(0.08, 0.08)"/></g><g id="3" class="thymio" style="fill:#e6e6e6" transform="translate(1.438, -0.759) rotate(-139.201)"><use xlink:href="#thymio" transform="scale(0.08, 0.08)"/></g><g id="12" class="agent" style="fill:gold" transform="translate(-0.697, -0.559) rotate(11.701)"><use xlink:href="#agent" transform="scale(0.146, 0.146)"/></g><g id="9" class="thymio" style="fill:#e6e6e6" transform="translate(0.881, -0.369) rotate(172.696)"><use xlink:href="#thymio" transform="scale(0.08, 0.08)"/></g><g id="14" class="agent" style="fill:gold" transform="translate(1.591, -0.315) rotate(124.5)"><use xlink:href="#agent" transform="scale(0.054, 0.054)"/></g><g id="8" class="thymio" style="fill:#e6e6e6" transform="translate(-1.087, -0.284) rotate(5.259)"><use xlink:href="#thymio" transform="scale(0.08, 0.08)"/></g><g id="18" class="agent" style="fill:gold" transform="translate(-0.707, -0.068) rotate(71.134)"><use xlink:href="#agent" transform="scale(0.1, 0.1)"/></g><g id="17" class="agent" style="fill:gold" transform="translate(1.967, -0.058) rotate(179.168)"><use xlink:href="#agent" transform="scale(0.2, 0.2)"/></g><g id="1" class="thymio" style="fill:#e6e6e6" transform="translate(-1.003, -0.015) rotate(179.149)"><use xlink:href="#thymio" transform="scale(0.08, 0.08)"/></g><g id="10" class="agent" style="fill:gold" transform="translate(-1.456, 0.543) rotate(45.02)"><use xlink:href="#agent" transform="scale(0.08, 0.08)"/></g><g id="2" class="thymio" style="fill:#e6e6e6" transform="translate(1.065, 0.589) rotate(127.045)"><use xlink:href="#thymio" transform="scale(0.08, 0.08)"/></g><g id="5" class="thymio" style="fill:#e6e6e6" transform="translate(-0.951, 0.892) rotate(-139.626)"><use xlink:href="#thymio" transform="scale(0.08, 0.08)"/></g><g id="4" class="thymio" style="fill:#e6e6e6" transform="translate(-1.103, 1.182) rotate(-20.857)"><use xlink:href="#thymio" transform="scale(0.08, 0.08)"/></g><g id="13" class="agent" style="fill:gold" transform="translate(1.438, 1.517) rotate(-156.193)"><use xlink:href="#agent" transform="scale(0.126, 0.126)"/></g><g id="16" class="agent" style="fill:gold" transform="translate(0.47, 1.636) rotate(-46.921)"><use xlink:href="#agent" transform="scale(0.193, 0.193)"/></g>
</g>
</svg>