<svg xmlns="http://www.w3.org/2000/svg" version="1.1" width="300" height="416" viewBox="-0.73 -1.85 2.81 3.90">

<style>
<![CDATA[
svg{
  style='stroke-width: 0px;
  background-color: snow;
}
.background{
  fill-opacity:0.05;
  fill: grey;
}
circle.obstacle{
  fill: gray; 
  stroke:none;
}
.agent{
  stroke:none;
  fill: orange;
}
polyline.wall{
  stroke:black;
  stroke-width:0.01;
}



]]>
</style>

<g id="world" transform="scale(1, -1)">
<g id="0" class="agent" transform="translate(0.3100000023841858, 0.3400000035762787)"><circle transform="scale(0.1, 0.1)" cx="0" cy="0" r="1"/></g><g id="1" class="agent" transform="translate(1.190000057220459, 1.3200000524520874)"><circle transform="scale(0.1, 0.1)" cx="0" cy="0" r="1"/></g><g id="2" class="agent" transform="translate(0.49000000953674316, 1.5700000524520874)"><circle transform="scale(0.1, 0.1)" cx="0" cy="0" r="1"/></g><g id="3" class="agent" transform="translate(-0.2199999988079071, 1.3300000429153442)"><circle transform="scale(0.1, 0.1)" cx="0" cy="0" r="1"/></g><g id="4" class="agent" transform="translate(-0.4000000059604645, 0.6000000238418579)"><circle transform="scale(0.1, 0.1)" cx="0" cy="0" r="1"/></g><g id="5" class="agent" transform="translate(0.5799999833106995, -0.46000000834465027)"><circle transform="scale(0.1, 0.1)" cx="0" cy="0" r="1"/></g><g id="6" class="agent" transform="translate(-0.23999999463558197, -0.8500000238418579)"><circle transform="scale(0.1, 0.1)" cx="0" cy="0" r="1"/></g><g id="7" class="agent" transform="translate(1.5700000524520874, -1.7699999809265137)"><circle transform="scale(0.1, 0.1)" cx="0" cy="0" r="1"/></g><g id="8" class="agent" transform="translate(1.850000023841858, -0.9100000262260437)"><circle transform="scale(0.1, 0.1)" cx="0" cy="0" r="1"/></g><g id="9" class="agent" transform="translate(-0.5, -0.15000000596046448)"><circle transform="scale(0.1, 0.1)" cx="0" cy="0" r="1"/></g><rect class="background" height="3.90" width="2.81" x="-0.73" y="-2.05"/>
</g>
</svg>