<svg xmlns="http://www.w3.org/2000/svg" version="1.1" width="300" height="350" viewBox="-2.19 -2.76 4.38 5.11">

<style>
<![CDATA[
svg{
  style='stroke-width: 0px;
  background-color: snow;
}
.background{
  fill-opacity:0.05;
  fill: grey;
}
circle.obstacle{
  fill: gray; 
  stroke:none;
}
.agent{
  stroke:none;
  fill: orange;
}
polyline.wall{
  stroke:black;
  stroke-width:0.01;
}

.body {
    fill: inherit;
}




]]>
</style>

<g id="world" transform="scale(1, -1)">
<g id="0" class="agent" transform="translate(-0.1599999964237213, 0.07999999821186066)"><circle transform="scale(0.1, 0.1)" cx="0" cy="0" r="1"/></g><g id="1" class="agent" transform="translate(-0.7099999785423279, 0.49000000953674316)"><circle transform="scale(0.1, 0.1)" cx="0" cy="0" r="1"/></g><g id="2" class="agent" transform="translate(-0.1899999976158142, 2.430000066757202)"><circle transform="scale(0.1, 0.1)" cx="0" cy="0" r="1"/></g><g id="3" class="agent" transform="translate(0.3499999940395355, 0.8100000023841858)"><circle transform="scale(0.1, 0.1)" cx="0" cy="0" r="1"/></g><g id="4" class="agent" transform="translate(1.440000057220459, 0.05999999865889549)"><circle transform="scale(0.1, 0.1)" cx="0" cy="0" r="1"/></g><g id="5" class="agent" transform="translate(-1.1200000047683716, -0.10000000149011612)"><circle transform="scale(0.1, 0.1)" cx="0" cy="0" r="1"/></g><g id="6" class="agent" transform="translate(-0.07000000029802322, -2.009999990463257)"><circle transform="scale(0.1, 0.1)" cx="0" cy="0" r="1"/></g><g id="7" class="agent" transform="translate(0.03999999910593033, 2.2100000381469727)"><circle transform="scale(0.1, 0.1)" cx="0" cy="0" r="1"/></g><g id="8" class="agent" transform="translate(-1.8899999856948853, 0.14000000059604645)"><circle transform="scale(0.1, 0.1)" cx="0" cy="0" r="1"/></g><g id="9" class="agent" transform="translate(1.8899999856948853, -0.3199999928474426)"><circle transform="scale(0.1, 0.1)" cx="0" cy="0" r="1"/></g><rect class="background" height="5.11" width="4.38" x="-2.19" y="-2.35"/>
</g>
</svg>