<svg xmlns="http://www.w3.org/2000/svg" xmlns:xlink="http://www.w3.org/1999/xlink" id="svg" version="1.1" width="300" height="300" viewBox="-2.2000 -2.2000 4.4000 4.4000">
<defs>
  <g id="agent">
   <circle class="body" cx="0" cy="0" r="1"/>
   <circle opacity="0.5" stroke="none" fill="black" cx="0.75" cy="0" r="0.25"/>
  </g>
  <g id="robomaster_ep">
    <path class="body" d="m -0.82233223,0.24 c -0.0391148,-0.15514519 -0.0391148,-0.32485481 0,-0.48 0.0120317,-0.0477227 0.07,-0.13 0.07,-0.13 h 0.45 l 0.09,-0.11 h 0.42 l 0.09,0.11 h 0.45 c 0,0 0.16467536,0.14929718 0.2,0.25 0.0264806,0.07549027 0.0264806,0.16450973 0,0.24 -0.0353246,0.10070282 -0.2,0.25 -0.2,0.25 h -0.45 l -0.09,0.11 h -0.42 l -0.09,-0.11 h -0.45 c 0,0 -0.0579683,-0.0822773 -0.07,-0.13 z"/>
    <rect class="wheel" height="0.22774614" rx="0.073571824" ry="0.073361315" style="fill:#121212;fill-opacity:1;stroke:none;stroke-width:0.00979554;stroke-dasharray:none;stroke-opacity:1" transform="scale(-1,1)" width="0.53466278" x="0.2324958" y="-0.61387306"/>
    <rect class="wheel" height="0.22774614" rx="0.073571824" ry="0.073361315" style="fill:#121212;stroke:none" width="0.53466278" x="0.23283984" y="-0.61387306"/>
    <rect class="wheel" height="0.22774614" rx="0.073571824" ry="0.073361315" style="fill:#121212;stroke:none" width="0.53466278" x="0.23283984" y="0.38612694"/>
    <rect class="wheel" height="0.22774614" rx="0.073571824" ry="0.073361315" style="fill:#121212;stroke:none" width="0.53466278" x="-0.76715857" y="0.38612694"/>
    <rect class="motor" height="0.12521972" style="fill:#2a2a2a;stroke:none" width="0.22443947" x="-0.093881205" y="0.15738994"/>
    <rect class="motor" height="0.12521972" style="fill:#2a2a2a;stroke:none" width="0.22443947" x="-0.093881205" y="-0.28260982"/>
    <path class="arm" d="m 1.0576703,-0.39000203 -0.23000152,0.0700009 -0.0300033,0.1699999 H -0.14233403 V 0.1500012 H 0.79766546 L 0.82766878,0.3200011 1.0576703,0.390002 1.2276702,0.3200011 1.2576684,0.2599996 H 1.0518308 L 0.93766725,0.1199978 V -0.1199978 L 1.0624503,-0.2599996 h 0.1952181 l -0.029998,-0.0600015 z m -0.00814,0.0597017 -0.13185764,0.1502648 -0.052064,-0.0813749 z m -0.75185597,0.2503 H 0.54478682 V 0.0800003 H 0.29767013 Z M 0.91766846,0.1841076 1.0495261,0.3343724 0.86560445,0.2654825 Z" style="fill:#2a2a2a;stroke:none"/>
  </g>
  <g id="quadrotor">
    <path class="camera" style="stroke:none;fill:#808080" d="M 0.25,0 0.75,0.25 0.75,-0.25 Z"/>
    <g class="body">
      <path d="M 0.06999986,0.07032032 0.49632602,-0.4605096 0.45935482,-0.492153 -0.07000004,-0.06968042 Z"/>
      <path d="m -0.07000006,0.07032032 -0.42632616,-0.53082992 0.0369712,-0.0316434 0.52935486,0.42247258 z"/>
      <path d="M 0.06999986,-0.07096132 0.49632602,0.4598686 0.45935482,0.4915121 -0.07000004,0.06903952 Z"/>
      <path d="M -0.07000006,-0.07096132 -0.49632622,0.4598686 -0.45935502,0.491512 0.06999984,0.06903942 Z"/>
      <circle cx="0" cy="0" r="0.35"/>
    </g>
    <g class="prop">
      <ellipse style="fill:#0d0d0d;stroke:none;" cx="0.69928879" cy="-0.14274563" rx="0.024324713" ry="0.11011158" transform="rotate(-45)"/>
      <ellipse style="fill:#0d0d0d;stroke:none;" cx="0.69928879" cy="0.14367317" rx="0.024324713" ry="0.11011158" transform="rotate(-45)"/>
      <ellipse style="fill:none;stroke:#000000;stroke-width:0.0392596" cx="0.49399981" cy="-0.49447966" rx="0.28037018" ry="0.28037015"/>
      <ellipse style="fill:none;stroke:#000000;stroke-width:0.0574358" cx="0.49399981" cy="-0.49447966" rx="0.051282048" ry="0.051282078"/>
    </g>
    <g class="prop">
      <ellipse style="fill:#0d0d0d;stroke:none;" cx="0.69928879" cy="-0.14274563" rx="0.024324713" ry="0.11011158" transform="matrix(-0.70710678,-0.70710678,-0.70710678,0.70710678,0,0)"/>
      <ellipse style="fill:#0d0d0d;stroke:none;" cx="0.69928879" cy="0.14367317" rx="0.024324713" ry="0.11011158" transform="matrix(-0.70710678,-0.70710678,-0.70710678,0.70710678,0,0)"/>
      <ellipse style="fill:none;stroke:#000000;stroke-width:0.0392596" cx="0.49399981" cy="-0.49447966" rx="0.28037018" ry="0.28037015" transform="scale(-1,1)"/>
      <ellipse style="fill:none;stroke:#000000;stroke-width:0.0574358" cx="0.49399981" cy="-0.49447966" rx="0.051282048" ry="0.051282078" transform="scale(-1,1)"/>
    </g>
    <g class="prop">
      <ellipse style="fill:#0d0d0d;stroke:none;" cx="0.69928879" cy="-0.14274563" rx="0.024324713" ry="0.11011158" transform="matrix(0.70710678,0.70710678,0.70710678,-0.70710678,0,0)"/>
      <ellipse style="fill:#0d0d0d;stroke:none;" cx="0.69928879" cy="0.14367317" rx="0.024324713" ry="0.11011158" transform="matrix(0.70710678,0.70710678,0.70710678,-0.70710678,0,0)"/>
      <ellipse style="fill:none;stroke:#000000;stroke-width:0.0392596" cx="0.49399981" cy="-0.49447966" rx="0.28037018" ry="0.28037015" transform="scale(1,-1)"/>
      <ellipse style="fill:none;stroke:#000000;stroke-width:0.0574358" cx="0.49399981" cy="-0.49447966" rx="0.051282048" ry="0.051282078" transform="scale(1,-1)"/>
    </g>
    <g class="prop">
      <ellipse style="fill:#0d0d0d;stroke:none;" cx="0.69928879" cy="-0.14274563" rx="0.024324713" ry="0.11011158" transform="rotate(135)"/>
      <ellipse style="fill:#0d0d0d;stroke:none;" cx="0.69928879" cy="0.14367317" rx="0.024324713" ry="0.11011158" transform="rotate(135)"/>
      <ellipse style="fill:none;stroke:#000000;stroke-width:0.0392596" cx="0.49399981" cy="-0.49447966" rx="0.28037018" ry="0.28037015" transform="scale(-1)"/>
      <ellipse style="fill:none;stroke:#000000;stroke-width:0.0574358" cx="0.49399981" cy="-0.49447966" rx="0.051282048" ry="0.051282078" transform="scale(-1)"/>
    </g>
  </g>
  <g id="thymio" transform="rotate(90)">
      <path class="body" d="M -0.6874903375 -0.7257309 L -0.6874903375 0.3749771125 L 0.6874903375 0.3749771125 L 0.6874903375 -0.726118475 A 1 1 0 0 0 0 -1 A 1 1 0 0 0 -0.6874903375 -0.7257309 z "/>
      <rect style="fill:#333333;stroke:none" width="0.1875" height="0.525" x="-0.675" y="-0.2625" rx="0.0625"/>
      <rect style="fill:#333333;stroke:none" width="0.1875" height="0.525" x="0.4875" y="-0.2625" rx="0.0625"/>
  </g>
  <g id="wheelchair" transform="rotate(180) translate(-1.1,-3.46)">
    <path stroke="none" style="fill:#c8beb7" d="m 0.9612298,3.7966354 h -0.7778 v -0.6666 h 0.7778 z"/>
    <path stroke="none" style="fill:#080808;" d="m 1.62765948,2.970532 v -0.0823436 -0.084297 H 1.0722298 v 0.166640 z"/>
    <path stroke="none" style="fill:#080808;" d="m 1.62765948,4.081332 v -0.0823436 -0.084297 H1.0722298 v 0.1666406 z"/>
    <path class="body" d="m 1.84994464,3.9982804 h -1 v -1.1112 h 1 z"/>
    <path stroke="none" style="fill:#917c6f;opacity:0.75;stroke:none" d="m 1.84994464,3.9982664 v -0.0554296 -1.0557422 h -0.11117186 v 1.1111718 z"/>
  </g>
  <g id="human" transform="rotate(180) translate(-1,-3.5)">
    <g class="body">
    <ellipse cx="0.80312774" cy="2.6959574" rx="0.46378762" ry="0.1392307"/>
    <ellipse cx="0.80312774" cy="4.2229708" rx="0.46378762" ry="0.1392307"/>
    <ellipse cx="1.08757424" cy="3.4594642" rx="0.39526176" ry="0.86793068"/>
    </g>
    <ellipse style="fill:#1a1a1a;opacity:0.5;stroke:none" cx="1.08757424" cy="3.458025" rx="0.3257516" ry="0.33270264"/>
  </g>
</defs>
<style>
<![CDATA[

/*svg{
  style=stroke-width: 0px;
}
*/
circle.obstacle{
  fill: gray; 
  stroke:none;
}
polyline.wall{
  stroke:black;
  stroke-width:0.01;
}

.shape {
  fill: none;
  stroke: black;
  stroke-width: 0.01;
  stroke-dasharray: 0.01;
}

.quadrotor {
  fill: #A0A0A0;
  stroke: none;
  stroke-width: 0.05;
}


.robomaster_ep {
  fill: #121212;
  stroke: none;
  stroke-width: 0.05;
}


.thymio {
  fill: #e6e6e6;
  stroke: none;
  stroke-width: 0.05;
}

.human {
  fill: #666666;
  stroke: none;
  stroke-width: 0.05;
}

.agent {
  fill: gray;
  stroke: none;
  stroke-width: 0.05;
}

.wheelchair {
  fill: #483e37;
  stroke: none;
  stroke-width: 0.05;
}

/*.body {
    all: inherit;
}
*/





svg {
   background-color: snow;
}

.grid {
  stroke: ;
  stroke-width: ;
}
]]>
</style>

<g id="world" transform="scale(1, -1) ">



<g id="7" class="thymio" style="fill:#158f4b" transform="translate(0.784, -1.577) rotate(-150.875)"><use xlink:href="#thymio" transform="scale(0.08, 0.08)"/></g><g id="13" class="agent" style="fill:#d3ec87" transform="translate(0.421, -1.438) rotate(135.601)"><use xlink:href="#agent" transform="scale(0.115, 0.115)"/></g><g id="15" class="agent" style="fill:#f9fcb7" transform="translate(0.073, -1.394) rotate(-238.33)"><use xlink:href="#agent" transform="scale(0.08, 0.08)"/></g><g id="5" class="thymio" style="fill:#4baf5c" transform="translate(-1.132, -0.945) rotate(115.657)"><use xlink:href="#thymio" transform="scale(0.08, 0.08)"/></g><g id="0" class="thymio" style="fill:#bfe37a" transform="translate(-0.09, -0.565) rotate(15.107)"><use xlink:href="#thymio" transform="scale(0.08, 0.08)"/></g><g id="8" class="thymio" style="fill:#63bb62" transform="translate(0.673, -0.525) rotate(21.489)"><use xlink:href="#thymio" transform="scale(0.08, 0.08)"/></g><g id="16" class="agent" style="fill:#016937" transform="translate(1.58, -0.315) rotate(36.883)"><use xlink:href="#agent" transform="scale(0.199, 0.199)"/></g><g id="2" class="thymio" style="fill:#e1f297" transform="translate(-1.116, -0.268) rotate(60.266)"><use xlink:href="#thymio" transform="scale(0.08, 0.08)"/></g><g id="11" class="agent" style="fill:#6dc063" transform="translate(-0.205, -0.253) rotate(-125.021)"><use xlink:href="#agent" transform="scale(0.132, 0.132)"/></g><g id="17" class="agent" style="fill:#cde983" transform="translate(-0.738, -0.14) rotate(-14.997)"><use xlink:href="#agent" transform="scale(0.129, 0.129)"/></g><g id="19" class="agent" style="fill:#afdc6f" transform="translate(-1.351, -0.019) rotate(-119.398)"><use xlink:href="#agent" transform="scale(0.132, 0.132)"/></g><g id="12" class="agent" style="fill:#edf7a7" transform="translate(1.219, 0.027) rotate(179.754)"><use xlink:href="#agent" transform="scale(0.113, 0.113)"/></g><g id="1" class="thymio" style="fill:#afdc6f" transform="translate(0.004, 0.129) rotate(-176.262)"><use xlink:href="#thymio" transform="scale(0.08, 0.08)"/></g><g id="9" class="thymio" style="fill:#5ab760" transform="translate(-0.625, 0.151) rotate(-195.244)"><use xlink:href="#thymio" transform="scale(0.08, 0.08)"/></g><g id="4" class="thymio" style="fill:#8ece67" transform="translate(0.329, 0.503) rotate(-20.36)"><use xlink:href="#thymio" transform="scale(0.08, 0.08)"/></g><g id="6" class="thymio" style="fill:#63bb62" transform="translate(-0.35, 0.605) rotate(76.423)"><use xlink:href="#thymio" transform="scale(0.08, 0.08)"/></g><g id="14" class="agent" style="fill:#86cb66" transform="translate(1.55, 0.748) rotate(118.917)"><use xlink:href="#agent" transform="scale(0.182, 0.182)"/></g><g id="3" class="thymio" style="fill:#feeea3" transform="translate(1.08, 0.941) rotate(-125.356)"><use xlink:href="#thymio" transform="scale(0.08, 0.08)"/></g><g id="10" class="agent" style="fill:#148d4a" transform="translate(-0.214, 1.053) rotate(80.779)"><use xlink:href="#agent" transform="scale(0.076, 0.076)"/></g><g id="18" class="agent" style="fill:#fef8b3" transform="translate(0.298, 1.625) rotate(163.899)"><use xlink:href="#agent" transform="scale(0.196, 0.196)"/></g>



</g>
</svg>