<svg xmlns="http://www.w3.org/2000/svg" xmlns:xlink="http://www.w3.org/1999/xlink" id="svg" version="1.1" width="300" height="300" viewBox="-2.2000 -2.2000 4.4000 4.4000">
<defs>
  <g id="agent" r="1">
  	<circle class="body" cx="0" cy="0" r="1"/>
  	<circle opacity="0.5" fill="black" cx="0.75" cy="0" r="0.25"/>
  </g>
  <g id="thymio" transform="rotate(90) scale(0.125)">
      <path class="body" stroke="none" d="M -5.4999227 -5.8058472 L -5.4999227 2.9998169 L 5.4999227 2.9998169 L 5.4999227     -5.8089478 A 8 8 0 0 0 0 -8.0000285 A 8 8 0 0 0 -5.4999227 -5.8058472 z "/>
      <rect style="fill:#333333;stroke:none" width="1.5" height="4.1999998" x="-5.4000001" y="-2.0999999" rx="0.5"/>
      <rect style="fill:#333333;stroke:none" id="rect441" width="1.5" height="4.1999998" x="3.9000001" y="-2.0999999" rx="0.5"/>
  </g>
  <g id="wheelchair" transform="scale(0.02) rotate(180) translate(-55,-173)">
    <path stroke="none" style="fill:#c8beb7" d="m 48.06149,189.83177 h -38.89 v -33.33 h 38.89 z"/>
    <path stroke="none" style="fill:#080808;" d="m 81.382974,148.5266 v -4.11718 -4.21485 H 53.61149 v 8.33203 z"/>
    <path stroke="none" style="fill:#080808;" d="m 81.382974,204.0666 v -4.11718 -4.21485 H 53.61149 v 8.33203 z"/>
    <path stroke="none" class="body" d="m 92.497232,199.91402 h -50 v -55.55999 h 50 z"/>
    <path stroke="none" style="fill:#917c6f" d="m 92.497232,199.91332 v -2.77148 -52.78711 h -5.558593 v 55.55859 z"/>
  </g>
  <g id="human" transform="scale(0.02) rotate(180) translate(-50,-175)">
    <g class="body" stroke="none">
    <ellipse cx="54.378712" cy="172.97321" rx="19.763088" ry="43.396534"/>

    <ellipse cx="40.156387" cy="134.79787" rx="23.189381" ry="6.961535"/>
    <ellipse cx="40.156387" cy="211.14854" rx="23.189381" ry="6.961535"/>
    </g>
    <ellipse style="fill:#1a1a1a;opacity:0.5" cx="54.378712" cy="172.90125" rx="16.28758" ry="16.635132"/>
  </g>
</defs>
<style>
<![CDATA[

/*svg{
  style=stroke-width: 0px;
}
*/
circle.obstacle{
  fill: gray; 
  stroke:none;
}
polyline.wall{
  stroke:black;
  stroke-width:0.01;
}

.shape {
  fill: none;
  stroke: black;
  stroke-width: 0.01;
  stroke-dasharray: 0.01;
}

.thymio {
  fill: #e6e6e6;
}

.human {
  fill: #666666;
}

.agent {
  fill: gray;
}

.wheelchair {
  fill: #483e37;
}

/*.body {
    all: inherit;
}
*/





svg {
   background-color: snow;
}

.grid {
  stroke: ;
  stroke-width: ;
}
]]>
</style>

<g id="world" transform="scale(1, -1) ">



<g id="7" class="thymio" style="fill:#e6e6e6" transform="translate(0.426, -1.802) rotate(-261.172)"><use xlink:href="#thymio" transform="scale(0.08, 0.08)"/></g><g id="17" class="agent" style="fill:gold" transform="translate(0.14, -1.294) rotate(173.958)"><use xlink:href="#agent" transform="scale(0.089, 0.089)"/></g><g id="3" class="thymio" style="fill:#e6e6e6" transform="translate(-0.2, -1.238) rotate(92.931)"><use xlink:href="#thymio" transform="scale(0.08, 0.08)"/></g><g id="19" class="agent" style="fill:gold" transform="translate(-0.474, -1.211) rotate(-65.901)"><use xlink:href="#agent" transform="scale(0.055, 0.055)"/></g><g id="8" class="thymio" style="fill:#e6e6e6" transform="translate(0.046, -0.833) rotate(23.104)"><use xlink:href="#thymio" transform="scale(0.08, 0.08)"/></g><g id="16" class="agent" style="fill:gold" transform="translate(1.282, -0.612) rotate(40.457)"><use xlink:href="#agent" transform="scale(0.13, 0.13)"/></g><g id="4" class="thymio" style="fill:#e6e6e6" transform="translate(0.869, -0.563) rotate(26.432)"><use xlink:href="#thymio" transform="scale(0.08, 0.08)"/></g><g id="11" class="agent" style="fill:gold" transform="translate(-0.014, -0.366) rotate(-103.42)"><use xlink:href="#agent" transform="scale(0.077, 0.077)"/></g><g id="13" class="agent" style="fill:gold" transform="translate(0.628, -0.262) rotate(186.882)"><use xlink:href="#agent" transform="scale(0.187, 0.187)"/></g><g id="14" class="agent" style="fill:gold" transform="translate(-0.322, -0.05) rotate(96.631)"><use xlink:href="#agent" transform="scale(0.051, 0.051)"/></g><g id="12" class="agent" style="fill:gold" transform="translate(0.936, 0.103) rotate(-192.069)"><use xlink:href="#agent" transform="scale(0.079, 0.079)"/></g><g id="2" class="thymio" style="fill:#e6e6e6" transform="translate(0.422, 0.135) rotate(127.931)"><use xlink:href="#thymio" transform="scale(0.08, 0.08)"/></g><g id="5" class="thymio" style="fill:#e6e6e6" transform="translate(0.713, 0.309) rotate(172.336)"><use xlink:href="#thymio" transform="scale(0.08, 0.08)"/></g><g id="0" class="thymio" style="fill:#e6e6e6" transform="translate(1.092, 0.414) rotate(-171.621)"><use xlink:href="#thymio" transform="scale(0.08, 0.08)"/></g><g id="15" class="agent" style="fill:gold" transform="translate(-0.108, 0.428) rotate(-91.179)"><use xlink:href="#agent" transform="scale(0.068, 0.068)"/></g><g id="18" class="agent" style="fill:gold" transform="translate(0.287, 0.5) rotate(99.148)"><use xlink:href="#agent" transform="scale(0.103, 0.103)"/></g><g id="10" class="agent" style="fill:gold" transform="translate(-1.355, 0.714) rotate(90.165)"><use xlink:href="#agent" transform="scale(0.182, 0.182)"/></g><g id="9" class="thymio" style="fill:#e6e6e6" transform="translate(-0.399, 0.948) rotate(-154.967)"><use xlink:href="#thymio" transform="scale(0.08, 0.08)"/></g><g id="1" class="thymio" style="fill:#e6e6e6" transform="translate(-0.715, 1.316) rotate(-142.197)"><use xlink:href="#thymio" transform="scale(0.08, 0.08)"/></g><g id="6" class="thymio" style="fill:#e6e6e6" transform="translate(-0.216, 1.546) rotate(229.472)"><use xlink:href="#thymio" transform="scale(0.08, 0.08)"/></g>
</g>
</svg>